<?xml version="1.0" encoding="UTF-8" standalone="no"?>
<!-- Created with Inkscape (http://www.inkscape.org/) -->

<svg
   xmlns:dc="http://purl.org/dc/elements/1.1/"
   xmlns:cc="http://creativecommons.org/ns#"
   xmlns:rdf="http://www.w3.org/1999/02/22-rdf-syntax-ns#"
   xmlns:svg="http://www.w3.org/2000/svg"
   xmlns="http://www.w3.org/2000/svg"
   xmlns:sodipodi="http://sodipodi.sourceforge.net/DTD/sodipodi-0.dtd"
   xmlns:inkscape="http://www.inkscape.org/namespaces/inkscape"
   width="3in"
   height="3in"
   viewBox="0 0 76.200001 76.200002"
   version="1.1"
   id="svg8"
   inkscape:version="0.92.2 (5c3e80d, 2017-08-06)"
   sodipodi:docname="ellis_bake_shop_2.svg">
  <defs
     id="defs2">
    <clipPath
       clipPathUnits="userSpaceOnUse"
       id="clipPath1006">
      <path
         id="path1008"
         style="opacity:1;fill:#d99046;fill-opacity:1;stroke:none;stroke-width:0.26483834;stroke-miterlimit:4;stroke-dasharray:none;stroke-dashoffset:0;stroke-opacity:1"
         d="M 76.199997,38.100003 A 38.099997,38.099997 0 0 1 38.099997,76.2 38.099997,38.099997 0 0 1 0,38.100003 38.099997,38.099997 0 0 1 38.099997,3.8146974e-6 38.099997,38.099997 0 0 1 76.199997,38.100003 Z"
         inkscape:connector-curvature="0" />
    </clipPath>
  </defs>
  <sodipodi:namedview
     id="base"
     pagecolor="#ffffff"
     bordercolor="#666666"
     borderopacity="1.0"
     inkscape:pageopacity="0.0"
     inkscape:pageshadow="2"
     inkscape:zoom="3"
     inkscape:cx="200.97445"
     inkscape:cy="130.02718"
     inkscape:document-units="mm"
     inkscape:current-layer="layer3"
     showgrid="false"
     units="in"
     inkscape:window-width="1920"
     inkscape:window-height="1017"
     inkscape:window-x="-8"
     inkscape:window-y="-8"
     inkscape:window-maximized="1" />
  <metadata
     id="metadata5">
    <rdf:RDF>
      <cc:Work
         rdf:about="">
        <dc:format>image/svg+xml</dc:format>
        <dc:type
           rdf:resource="http://purl.org/dc/dcmitype/StillImage" />
        <dc:title></dc:title>
      </cc:Work>
    </rdf:RDF>
  </metadata>
  <g
     inkscape:label="Layer 1"
     inkscape:groupmode="layer"
     id="layer1"
     transform="translate(0,-220.79998)"
     sodipodi:insensitive="true">
    <circle
       style="opacity:1;fill:#d99046;fill-opacity:1;stroke:none;stroke-width:0.26483834;stroke-miterlimit:4;stroke-dasharray:none;stroke-dashoffset:0;stroke-opacity:1"
       id="path815"
       cx="38.099998"
       cy="258.89996"
       r="38.099998" />
    <circle
       cy="258.89996"
       cx="38.099998"
       id="circle830"
       style="opacity:1;fill:#850800;fill-opacity:1;stroke:none;stroke-width:0.24718246;stroke-miterlimit:4;stroke-dasharray:none;stroke-dashoffset:0;stroke-opacity:1"
       r="35.560001" />
  </g>
  <g
     inkscape:groupmode="layer"
     id="layer3"
     inkscape:label="Layer 3"
     style="display:inline"
     sodipodi:insensitive="true">
    <g
       id="g1004"
       clip-path="url(#clipPath1006)">
      <rect
         rx="0.93477213"
         y="7.4187915e-006"
         x="11.43"
         height="76.199997"
         width="10.668001"
         id="rect837"
         style="opacity:1;fill:#a76522;fill-opacity:1;stroke:none;stroke-width:0.22670245;stroke-miterlimit:4;stroke-dasharray:none;stroke-dashoffset:0;stroke-opacity:1" />
      <rect
         style="opacity:1;fill:#a76522;fill-opacity:1;stroke:none;stroke-width:0.22670245;stroke-miterlimit:4;stroke-dasharray:none;stroke-dashoffset:0;stroke-opacity:1"
         id="rect839"
         width="10.668001"
         height="76.199997"
         x="32.766003"
         y="7.4187915e-006"
         rx="0.93477213" />
      <rect
         rx="0.93477213"
         y="7.4187915e-006"
         x="54.102001"
         height="76.199997"
         width="10.668001"
         id="rect841"
         style="opacity:1;fill:#a76522;fill-opacity:1;stroke:none;stroke-width:0.22670245;stroke-miterlimit:4;stroke-dasharray:none;stroke-dashoffset:0;stroke-opacity:1" />
      <rect
         transform="rotate(90)"
         rx="0.93477201"
         y="-76.199997"
         x="11.430001"
         height="76.199997"
         width="10.668"
         id="rect837-6"
         style="opacity:1;fill:#d99046;fill-opacity:1;stroke:none;stroke-width:0.22670245;stroke-miterlimit:4;stroke-dasharray:none;stroke-dashoffset:0;stroke-opacity:1" />
      <rect
         transform="rotate(90)"
         style="opacity:1;fill:#d99046;fill-opacity:1;stroke:none;stroke-width:0.22670245;stroke-miterlimit:4;stroke-dasharray:none;stroke-dashoffset:0;stroke-opacity:1"
         id="rect839-7"
         width="10.668"
         height="76.199997"
         x="32.766006"
         y="-76.199997"
         rx="0.93477201" />
      <rect
         transform="rotate(90)"
         rx="0.93477201"
         y="-76.199997"
         x="54.102001"
         height="76.199997"
         width="10.668"
         id="rect841-7"
         style="opacity:1;fill:#d99046;fill-opacity:1;stroke:none;stroke-width:0.22670245;stroke-miterlimit:4;stroke-dasharray:none;stroke-dashoffset:0;stroke-opacity:1" />
      <rect
         style="opacity:1;fill:#a76522;fill-opacity:1;stroke:none;stroke-width:0.13088672;stroke-miterlimit:4;stroke-dasharray:none;stroke-dashoffset:0;stroke-opacity:1"
         id="rect1145"
         width="10.668"
         height="25.4"
         x="11.43"
         y="25.4"
         rx="0.93477201" />
      <rect
         style="opacity:1;fill:#a76522;fill-opacity:1;stroke:none;stroke-width:0.13088672;stroke-miterlimit:4;stroke-dasharray:none;stroke-dashoffset:0;stroke-opacity:1"
         id="rect1147"
         width="10.668"
         height="25.4"
         x="54.102001"
         y="25.4"
         rx="0.93477201" />
    </g>
  </g>
  <g
     inkscape:groupmode="layer"
     id="layer4"
     inkscape:label="Layer 4"
     style="display:inline"
     sodipodi:insensitive="true">
    <text
       xml:space="preserve"
       style="font-style:normal;font-variant:normal;font-weight:normal;font-stretch:normal;font-size:4.58611107px;line-height:1;font-family:Rockwell;-inkscape-font-specification:Rockwell;letter-spacing:0px;word-spacing:0px;fill:#000000;fill-opacity:1;stroke:none;stroke-width:0.26458332"
       x="18.895956"
       y="21.008841"
       id="text1133"><tspan
         sodipodi:role="line"
         id="tspan1131"
         x="18.895956"
         y="24.479609"
         style="font-style:normal;font-variant:normal;font-weight:normal;font-stretch:normal;font-family:Rockwell;-inkscape-font-specification:Rockwell;stroke-width:0.26458332" /></text>
  </g>
  <g
     inkscape:groupmode="layer"
     id="layer5"
     inkscape:label="Layer 5"
     style="display:inline"
     sodipodi:insensitive="true">
    <g
       id="g1646"
       style="font-style:normal;font-variant:normal;font-weight:bold;font-stretch:normal;font-size:4.58611107px;line-height:1;font-family:Rockwell;-inkscape-font-specification:'Rockwell Bold';letter-spacing:0px;word-spacing:0px;display:inline;fill:#4c2b0e;fill-opacity:1;stroke:none;stroke-width:0.26458332"
       aria-label="ellisbakeshop.com">
      <path
         id="path1612"
         style="font-style:normal;font-variant:normal;font-weight:bold;font-stretch:normal;font-family:Rockwell;-inkscape-font-specification:'Rockwell Bold';fill:#4c2b0e;fill-opacity:1;stroke-width:0.26458332"
         d="m 18.565361,60.215857 0.537435,0.172427 q -0.338136,0.530717 -1.056956,0.530717 -0.573263,0 -0.895724,-0.302308 -0.320222,-0.302307 -0.320222,-0.794955 0,-0.501606 0.331418,-0.837503 0.331418,-0.335897 0.844221,-0.335897 0.371726,0 0.642682,0.188102 0.270957,0.188103 0.376205,0.468017 0.105247,0.279914 0.105247,0.624768 h -1.614544 q 0.01568,0.295589 0.185863,0.418751 0.172427,0.123162 0.362769,0.123162 0.248564,0 0.501606,-0.255281 z m -0.13212,-0.671794 q -0.02463,-0.181384 -0.143316,-0.309025 -0.116444,-0.127641 -0.320221,-0.127641 -0.380683,0 -0.443384,0.436666 z"
         inkscape:connector-curvature="0" />
      <path
         id="path1614"
         style="font-style:normal;font-variant:normal;font-weight:bold;font-stretch:normal;font-family:Rockwell;-inkscape-font-specification:'Rockwell Bold';fill:#4c2b0e;fill-opacity:1;stroke-width:0.26458332"
         d="m 19.456607,60.869736 v -0.499367 h 0.340375 v -2.11615 h -0.340375 v -0.499366 h 1.032323 v 2.615516 h 0.311264 v 0.499367 z"
         inkscape:connector-curvature="0" />
      <path
         id="path1616"
         style="font-style:normal;font-variant:normal;font-weight:bold;font-stretch:normal;font-family:Rockwell;-inkscape-font-specification:'Rockwell Bold';fill:#4c2b0e;fill-opacity:1;stroke-width:0.26458332"
         d="m 21.077869,60.869736 v -0.499367 h 0.340376 v -2.11615 h -0.340376 v -0.499366 h 1.032323 v 2.615516 h 0.311264 v 0.499367 z"
         inkscape:connector-curvature="0" />
      <path
         id="path1618"
         style="font-style:normal;font-variant:normal;font-weight:bold;font-stretch:normal;font-family:Rockwell;-inkscape-font-specification:'Rockwell Bold';fill:#4c2b0e;fill-opacity:1;stroke-width:0.26458332"
         d="m 23.02831,58.081792 q 0,-0.156752 0.109726,-0.268717 0.111965,-0.111966 0.268717,-0.111966 0.158991,0 0.268718,0.111966 0.109726,0.111965 0.109726,0.268717 0,0.156752 -0.111966,0.268718 -0.109726,0.109726 -0.266478,0.109726 -0.154512,0 -0.266478,-0.111966 -0.111965,-0.111965 -0.111965,-0.266478 z m -0.304547,1.121896 v -0.501606 h 1.021126 v 1.668287 h 0.322461 v 0.499367 h -1.343587 v -0.499367 h 0.329179 v -1.166681 z"
         inkscape:connector-curvature="0" />
      <path
         id="path1620"
         style="font-style:normal;font-variant:normal;font-weight:bold;font-stretch:normal;font-family:Rockwell;-inkscape-font-specification:'Rockwell Bold';fill:#4c2b0e;fill-opacity:1;stroke-width:0.26458332"
         d="m 24.418922,60.869736 v -0.745691 h 0.506085 q 0.0067,0.152273 0.141077,0.244085 0.134358,0.08957 0.331418,0.08957 0.170188,0 0.264239,-0.05822 0.09629,-0.06046 0.09629,-0.152273 0,-0.08509 -0.08733,-0.132119 -0.08733,-0.04703 -0.342615,-0.08957 -0.526238,-0.08509 -0.759127,-0.257521 -0.232888,-0.174666 -0.232888,-0.461298 0,-0.268718 0.219453,-0.452341 0.219452,-0.185863 0.582221,-0.185863 0.29335,0 0.548631,0.107487 v -0.0739 h 0.494888 v 0.629246 h -0.494888 q -0.06718,-0.22617 -0.474734,-0.22617 -0.300068,0 -0.300068,0.165709 0,0.0627 0.06046,0.09629 0.0627,0.03135 0.315743,0.07614 0.400836,0.06942 0.600135,0.138837 0.199299,0.06942 0.317983,0.230649 0.120922,0.158992 0.120922,0.382923 0,0.317982 -0.228409,0.521759 -0.226171,0.201539 -0.642683,0.201539 -0.387401,0 -0.530717,-0.156752 v 0.107487 z"
         inkscape:connector-curvature="0" />
      <path
         id="path1622"
         style="font-style:normal;font-variant:normal;font-weight:bold;font-stretch:normal;font-family:Rockwell;-inkscape-font-specification:'Rockwell Bold';fill:#4c2b0e;fill-opacity:1;stroke-width:0.26458332"
         d="m 27.623378,57.754853 v 1.191314 q 0.25976,-0.297829 0.615811,-0.297829 0.416512,0 0.676272,0.315743 0.261999,0.315743 0.261999,0.808392 0,0.526238 -0.261999,0.828545 -0.25976,0.300068 -0.658358,0.300068 -0.35829,0 -0.633725,-0.279914 v 0.248564 h -1.068152 v -0.499367 h 0.376204 v -2.11615 h -0.376204 v -0.499366 z m 0.84422,2.013141 q 0,-0.277675 -0.114205,-0.418751 -0.114204,-0.141077 -0.302307,-0.141077 -0.179145,0 -0.306785,0.138838 -0.127641,0.138837 -0.127641,0.452341 0,0.264238 0.118683,0.414272 0.120923,0.150034 0.309025,0.150034 0.181385,0 0.302308,-0.145555 0.120922,-0.145555 0.120922,-0.450102 z"
         inkscape:connector-curvature="0" />
      <path
         id="path1624"
         style="font-style:normal;font-variant:normal;font-weight:bold;font-stretch:normal;font-family:Rockwell;-inkscape-font-specification:'Rockwell Bold';fill:#4c2b0e;fill-opacity:1;stroke-width:0.26458332"
         d="m 31.965404,60.370369 v 0.499367 h -1.04128 v -0.170188 q -0.279914,0.201538 -0.591178,0.201538 -0.322461,0 -0.557589,-0.183624 -0.232889,-0.183623 -0.232889,-0.492648 0,-0.311265 0.246325,-0.52176 0.246324,-0.210495 0.635964,-0.210495 0.217214,0 0.499367,0.109726 v -0.132119 q 0,-0.165709 -0.111966,-0.270957 -0.111965,-0.107487 -0.300067,-0.107487 -0.232889,0 -0.398598,0.170188 l -0.557589,-0.100769 q 0.241846,-0.512803 1.050238,-0.512803 0.313503,0 0.51952,0.07166 0.206017,0.06942 0.306786,0.181384 0.100769,0.111966 0.141076,0.246325 0.04255,0.132119 0.04255,0.432187 v 0.790477 z m -1.04128,-0.302307 q -0.250803,-0.156752 -0.400837,-0.156752 -0.118683,0 -0.217213,0.06942 -0.09629,0.06942 -0.09629,0.201538 0,0.118683 0.07838,0.203777 0.07838,0.08509 0.201538,0.08509 0.192581,0 0.434427,-0.22617 z"
         inkscape:connector-curvature="0" />
      <path
         id="path1626"
         style="font-style:normal;font-variant:normal;font-weight:bold;font-stretch:normal;font-family:Rockwell;-inkscape-font-specification:'Rockwell Bold';fill:#4c2b0e;fill-opacity:1;stroke-width:0.26458332"
         d="m 32.191574,60.869736 v -0.499367 h 0.349333 v -2.11615 h -0.349333 v -0.499366 h 1.039041 v 1.968355 l 0.745691,-0.606854 h -0.459059 v -0.414272 h 1.309998 v 0.438905 h -0.217214 l -0.633725,0.541913 0.577743,0.687469 h 0.300067 v 0.499367 h -0.665075 l -0.958426,-1.146528 v 0.671794 h 0.262 v 0.474734 z"
         inkscape:connector-curvature="0" />
      <path
         id="path1628"
         style="font-style:normal;font-variant:normal;font-weight:bold;font-stretch:normal;font-family:Rockwell;-inkscape-font-specification:'Rockwell Bold';fill:#4c2b0e;fill-opacity:1;stroke-width:0.26458332"
         d="m 36.779924,60.215857 0.537435,0.172427 q -0.338136,0.530717 -1.056955,0.530717 -0.573264,0 -0.895725,-0.302308 -0.320222,-0.302307 -0.320222,-0.794955 0,-0.501606 0.331419,-0.837503 0.331418,-0.335897 0.84422,-0.335897 0.371726,0 0.642683,0.188102 0.270957,0.188103 0.376204,0.468017 0.105248,0.279914 0.105248,0.624768 h -1.614544 q 0.01568,0.295589 0.185863,0.418751 0.172427,0.123162 0.362768,0.123162 0.248564,0 0.501606,-0.255281 z m -0.132119,-0.671794 q -0.02463,-0.181384 -0.143316,-0.309025 -0.116444,-0.127641 -0.320222,-0.127641 -0.380683,0 -0.443384,0.436666 z"
         inkscape:connector-curvature="0" />
      <path
         id="path1630"
         style="font-style:normal;font-variant:normal;font-weight:bold;font-stretch:normal;font-family:Rockwell;-inkscape-font-specification:'Rockwell Bold';fill:#4c2b0e;fill-opacity:1;stroke-width:0.26458332"
         d="m 37.77418,60.869736 v -0.745691 h 0.506085 q 0.0067,0.152273 0.141076,0.244085 0.134359,0.08957 0.331418,0.08957 0.170188,0 0.264239,-0.05822 0.09629,-0.06046 0.09629,-0.152273 0,-0.08509 -0.08733,-0.132119 -0.08733,-0.04703 -0.342614,-0.08957 -0.526239,-0.08509 -0.759127,-0.257521 -0.232889,-0.174666 -0.232889,-0.461298 0,-0.268718 0.219453,-0.452341 0.219453,-0.185863 0.582221,-0.185863 0.29335,0 0.548632,0.107487 v -0.0739 h 0.494888 v 0.629246 h -0.494888 q -0.06718,-0.22617 -0.474735,-0.22617 -0.300067,0 -0.300067,0.165709 0,0.0627 0.06046,0.09629 0.0627,0.03135 0.315743,0.07614 0.400837,0.06942 0.600136,0.138837 0.199298,0.06942 0.317982,0.230649 0.120923,0.158992 0.120923,0.382923 0,0.317982 -0.22841,0.521759 -0.22617,0.201539 -0.642683,0.201539 -0.3874,0 -0.530716,-0.156752 v 0.107487 z"
         inkscape:connector-curvature="0" />
      <path
         id="path1632"
         style="font-style:normal;font-variant:normal;font-weight:bold;font-stretch:normal;font-family:Rockwell;-inkscape-font-specification:'Rockwell Bold';fill:#4c2b0e;fill-opacity:1;stroke-width:0.26458332"
         d="m 39.970944,60.869736 v -0.499367 h 0.349333 v -2.11615 h -0.349333 v -0.499366 h 1.039041 v 1.121895 q 0.32694,-0.22841 0.615811,-0.22841 0.665076,0 0.665076,0.799435 v 0.922596 h 0.317982 v 0.499367 h -1.00993 v -1.390613 q 0,-0.152273 -0.05598,-0.208256 -0.05374,-0.05822 -0.163469,-0.05822 -0.154513,0 -0.369487,0.136598 v 1.021126 h 0.309025 v 0.499367 z"
         inkscape:connector-curvature="0" />
      <path
         id="path1634"
         style="font-style:normal;font-variant:normal;font-weight:bold;font-stretch:normal;font-family:Rockwell;-inkscape-font-specification:'Rockwell Bold';fill:#4c2b0e;fill-opacity:1;stroke-width:0.26458332"
         d="m 44.026339,60.919001 q -0.479213,0 -0.810631,-0.302308 -0.329179,-0.304546 -0.329179,-0.833024 0,-0.528477 0.329179,-0.830784 0.331418,-0.304547 0.810631,-0.304547 0.481452,0 0.810631,0.304547 0.329179,0.302307 0.329179,0.830784 0,0.52176 -0.32694,0.828546 -0.3247,0.306786 -0.81287,0.306786 z m -0.0022,-0.537435 q 0.192581,0 0.311265,-0.147795 0.120923,-0.147794 0.120923,-0.463537 0,-0.277675 -0.116445,-0.432188 -0.116444,-0.156752 -0.315743,-0.156752 -0.427708,0 -0.427708,0.618051 0,0.253042 0.105247,0.418751 0.107487,0.16347 0.322461,0.16347 z"
         inkscape:connector-curvature="0" />
      <path
         id="path1636"
         style="font-style:normal;font-variant:normal;font-weight:bold;font-stretch:normal;font-family:Rockwell;-inkscape-font-specification:'Rockwell Bold';fill:#4c2b0e;fill-opacity:1;stroke-width:0.26458332"
         d="m 46.910572,61.348948 v 0.499367 H 45.41919 v -0.499367 h 0.365008 v -2.14526 h -0.304546 v -0.501606 h 0.996494 v 0.270956 q 0.288871,-0.304546 0.644921,-0.304546 0.429948,0 0.676273,0.342615 0.248563,0.340375 0.248563,0.794955 0,0.481453 -0.255281,0.797196 -0.255282,0.315743 -0.680751,0.315743 -0.347093,0 -0.633725,-0.270957 v 0.700904 z m 0.425469,-1.556321 q 0,-0.284393 -0.118683,-0.42547 -0.116444,-0.141076 -0.309025,-0.141076 -0.19482,0 -0.317982,0.145555 -0.120923,0.143316 -0.120923,0.429948 0,0.257521 0.120923,0.414273 0.120922,0.156751 0.32246,0.156751 0.185863,0 0.304547,-0.141076 0.118683,-0.141077 0.118683,-0.438905 z"
         inkscape:connector-curvature="0" />
      <path
         id="path1638"
         style="font-style:normal;font-variant:normal;font-weight:bold;font-stretch:normal;font-family:Rockwell;-inkscape-font-specification:'Rockwell Bold';fill:#4c2b0e;fill-opacity:1;stroke-width:0.26458332"
         d="m 48.469135,60.869736 v -0.75017 h 0.750169 v 0.75017 z"
         inkscape:connector-curvature="0" />
      <path
         id="path1640"
         style="font-style:normal;font-variant:normal;font-weight:bold;font-stretch:normal;font-family:Rockwell;-inkscape-font-specification:'Rockwell Bold';fill:#4c2b0e;fill-opacity:1;stroke-width:0.26458332"
         d="m 52.05651,58.702082 v 0.880049 h -0.492648 q -0.167949,-0.362768 -0.526239,-0.362768 -0.228409,0 -0.365008,0.152273 -0.134358,0.150034 -0.134358,0.403076 0,0.306786 0.143316,0.45458 0.143316,0.145556 0.351572,0.145556 0.165709,0 0.313503,-0.09405 0.147795,-0.09629 0.237367,-0.253043 l 0.537435,0.237367 q -0.300067,0.65388 -1.052476,0.65388 -0.566546,0 -0.904682,-0.309025 -0.335897,-0.309026 -0.335897,-0.826307 0,-0.517281 0.329179,-0.815109 0.331418,-0.300068 0.770323,-0.300068 0.351572,0 0.656118,0.212735 v -0.179145 z"
         inkscape:connector-curvature="0" />
      <path
         id="path1642"
         style="font-style:normal;font-variant:normal;font-weight:bold;font-stretch:normal;font-family:Rockwell;-inkscape-font-specification:'Rockwell Bold';fill:#4c2b0e;fill-opacity:1;stroke-width:0.26458332"
         d="m 53.547894,60.919001 q -0.479213,0 -0.810631,-0.302308 -0.329179,-0.304546 -0.329179,-0.833024 0,-0.528477 0.329179,-0.830784 0.331418,-0.304547 0.810631,-0.304547 0.481452,0 0.810631,0.304547 0.329179,0.302307 0.329179,0.830784 0,0.52176 -0.32694,0.828546 -0.3247,0.306786 -0.81287,0.306786 z m -0.0022,-0.537435 q 0.192581,0 0.311265,-0.147795 0.120923,-0.147794 0.120923,-0.463537 0,-0.277675 -0.116445,-0.432188 -0.116444,-0.156752 -0.315743,-0.156752 -0.427708,0 -0.427708,0.618051 0,0.253042 0.105247,0.418751 0.107487,0.16347 0.322461,0.16347 z"
         inkscape:connector-curvature="0" />
      <path
         id="path1644"
         style="font-style:normal;font-variant:normal;font-weight:bold;font-stretch:normal;font-family:Rockwell;-inkscape-font-specification:'Rockwell Bold';fill:#4c2b0e;fill-opacity:1;stroke-width:0.26458332"
         d="m 54.998967,59.203688 v -0.501606 h 1.050238 v 0.176905 q 0.353811,-0.210495 0.703144,-0.210495 0.418751,0 0.6494,0.297828 0.418752,-0.297828 0.875571,-0.297828 0.270957,0 0.438905,0.100769 0.170188,0.09853 0.232889,0.266478 0.0627,0.167949 0.0627,0.508324 v 0.826306 h 0.35829 v 0.499367 h -1.050238 v -1.26969 q 0,-0.340376 -0.29335,-0.340376 -0.230649,0 -0.499366,0.147795 v 0.962904 h 0.35829 v 0.499367 H 56.835203 V 59.6202 q 0,-0.36053 -0.282153,-0.36053 -0.219453,0 -0.503845,0.147795 v 0.962904 h 0.35829 v 0.499367 h -1.408528 v -0.499367 h 0.35829 v -1.166681 z"
         inkscape:connector-curvature="0" />
    </g>
    <g
       id="g1674"
       style="font-style:normal;font-variant:normal;font-weight:normal;font-stretch:normal;font-size:4.58611107px;line-height:1;font-family:Arial;-inkscape-font-specification:Arial;letter-spacing:0px;word-spacing:0px;display:inline;fill:#4c2b0e;fill-opacity:1;stroke:none;stroke-width:0.26458332"
       aria-label="Ellis Bake Shop">
      <path
         id="path1648"
         style="font-style:normal;font-variant:normal;font-weight:bold;font-stretch:normal;font-size:7.05555534px;font-family:Rockwell;-inkscape-font-specification:'Rockwell Bold';fill:#4c2b0e;fill-opacity:1;stroke-width:0.26458332"
         d="m 11.638223,18.982964 v -0.809598 h 0.575331 v -3.172933 h -0.575331 v -0.809597 h 4.223687 v 1.519287 h -0.916396 v -0.70969 h -1.484836 v 1.105876 h 1.198894 v 0.809597 h -1.198894 v 1.25746 h 1.484836 v -0.71658 h 0.916396 v 1.526178 z"
         inkscape:connector-curvature="0" />
      <path
         id="path1650"
         style="font-style:normal;font-variant:normal;font-weight:bold;font-stretch:normal;font-size:7.05555534px;font-family:Rockwell;-inkscape-font-specification:'Rockwell Bold';fill:#4c2b0e;fill-opacity:1;stroke-width:0.26458332"
         d="m 16.375229,18.982964 v -0.768257 h 0.523655 v -3.255615 h -0.523655 v -0.768256 h 1.588189 v 4.023871 h 0.478868 v 0.768257 z"
         inkscape:connector-curvature="0" />
      <path
         id="path1652"
         style="font-style:normal;font-variant:normal;font-weight:bold;font-stretch:normal;font-size:7.05555534px;font-family:Rockwell;-inkscape-font-specification:'Rockwell Bold';fill:#4c2b0e;fill-opacity:1;stroke-width:0.26458332"
         d="m 18.869479,18.982964 v -0.768257 h 0.523654 v -3.255615 h -0.523654 v -0.768256 h 1.588189 v 4.023871 h 0.478868 v 0.768257 z"
         inkscape:connector-curvature="0" />
      <path
         id="path1654"
         style="font-style:normal;font-variant:normal;font-weight:bold;font-stretch:normal;font-size:7.05555534px;font-family:Rockwell;-inkscape-font-specification:'Rockwell Bold';fill:#4c2b0e;fill-opacity:1;stroke-width:0.26458332"
         d="m 21.870157,14.69382 q 0,-0.241157 0.16881,-0.413412 0.172254,-0.172254 0.413411,-0.172254 0.244602,0 0.413411,0.172254 0.16881,0.172255 0.16881,0.413412 0,0.241156 -0.172255,0.413411 -0.168809,0.16881 -0.409966,0.16881 -0.237712,0 -0.409966,-0.172255 -0.172255,-0.172255 -0.172255,-0.409966 z m -0.468533,1.725993 v -0.771702 h 1.570963 v 2.566596 h 0.496094 v 0.768257 h -2.067057 v -0.768257 h 0.506429 v -1.794894 z"
         inkscape:connector-curvature="0" />
      <path
         id="path1656"
         style="font-style:normal;font-variant:normal;font-weight:bold;font-stretch:normal;font-size:7.05555534px;font-family:Rockwell;-inkscape-font-specification:'Rockwell Bold';fill:#4c2b0e;fill-opacity:1;stroke-width:0.26458332"
         d="m 24.00956,18.982964 v -1.147217 h 0.778592 q 0.01034,0.234266 0.217041,0.375515 0.206706,0.137804 0.509874,0.137804 0.261827,0 0.406521,-0.08957 0.14814,-0.09302 0.14814,-0.234267 0,-0.130914 -0.134359,-0.203261 -0.134359,-0.07235 -0.5271,-0.137803 -0.809597,-0.130914 -1.167887,-0.396186 -0.35829,-0.268718 -0.35829,-0.70969 0,-0.413411 0.337619,-0.695909 0.33762,-0.285943 0.895725,-0.285943 0.451308,0 0.844048,0.165364 v -0.113688 h 0.761367 v 0.968072 h -0.761367 q -0.103352,-0.347955 -0.73036,-0.347955 -0.461643,0 -0.461643,0.254937 0,0.09646 0.09302,0.14814 0.09646,0.04823 0.485758,0.117133 0.616673,0.106798 0.923286,0.213596 0.306614,0.106798 0.489204,0.354845 0.186035,0.244601 0.186035,0.589111 0,0.489203 -0.3514,0.802707 -0.347955,0.310059 -0.988742,0.310059 -0.596002,0 -0.816488,-0.241157 v 0.165365 z"
         inkscape:connector-curvature="0" />
      <path
         id="path1658"
         style="font-style:normal;font-variant:normal;font-weight:bold;font-stretch:normal;font-size:7.05555534px;font-family:Rockwell;-inkscape-font-specification:'Rockwell Bold';fill:#4c2b0e;fill-opacity:1;stroke-width:0.26458332"
         d="m 29.194429,18.982964 v -0.809598 h 0.589111 v -3.172933 h -0.589111 v -0.809597 h 2.187635 q 0.726915,0 1.08176,0.08613 0.354845,0.08268 0.613227,0.409967 0.258382,0.323839 0.258382,0.761366 0,0.699354 -0.675238,0.988742 0.861273,0.320394 0.861273,1.147217 0,0.475423 -0.268717,0.816487 -0.265272,0.33762 -0.689019,0.461643 -0.420302,0.120579 -1.181668,0.120579 z m 1.836235,-2.900771 h 0.3514 q 0.36518,0 0.537435,-0.124023 0.172255,-0.124024 0.172255,-0.437527 0,-0.285943 -0.16881,-0.403076 -0.165364,-0.117134 -0.582221,-0.117134 h -0.310059 z m 0,2.091173 h 0.3514 q 0.478868,0 0.668349,-0.137804 0.18948,-0.137803 0.18948,-0.485758 0,-0.36518 -0.206706,-0.509874 -0.20326,-0.148139 -0.651123,-0.148139 h -0.3514 z"
         inkscape:connector-curvature="0" />
      <path
         id="path1660"
         style="font-style:normal;font-variant:normal;font-weight:bold;font-stretch:normal;font-size:7.05555534px;font-family:Rockwell;-inkscape-font-specification:'Rockwell Bold';fill:#4c2b0e;fill-opacity:1;stroke-width:0.26458332"
         d="m 37.907077,18.214707 v 0.768257 h -1.60197 v -0.261828 q -0.430637,0.310059 -0.909505,0.310059 -0.496094,0 -0.857829,-0.282498 -0.35829,-0.282498 -0.35829,-0.757921 0,-0.478868 0.378961,-0.802707 0.37896,-0.323839 0.978407,-0.323839 0.334174,0 0.768256,0.16881 v -0.203261 q 0,-0.254937 -0.172255,-0.416857 -0.172254,-0.165364 -0.461642,-0.165364 -0.35829,0 -0.613227,0.261827 l -0.857829,-0.155029 q 0.37207,-0.788927 1.61575,-0.788927 0.482313,0 0.799262,0.110243 0.316949,0.106798 0.471978,0.279053 0.155029,0.172254 0.217041,0.37896 0.06546,0.203261 0.06546,0.664904 v 1.216118 z m -1.60197,-0.465088 q -0.385851,-0.241156 -0.616672,-0.241156 -0.18259,0 -0.334174,0.106798 -0.148139,0.106798 -0.148139,0.310058 0,0.18259 0.120578,0.313504 0.120578,0.130914 0.310059,0.130914 0.296278,0 0.668348,-0.347955 z"
         inkscape:connector-curvature="0" />
      <path
         id="path1662"
         style="font-style:normal;font-variant:normal;font-weight:bold;font-stretch:normal;font-size:7.05555534px;font-family:Rockwell;-inkscape-font-specification:'Rockwell Bold';fill:#4c2b0e;fill-opacity:1;stroke-width:0.26458332"
         d="m 38.25503,18.982964 v -0.768257 h 0.537435 V 14.959092 H 38.25503 v -0.768256 h 1.598524 v 3.028239 l 1.147217,-0.933621 h -0.706245 v -0.637343 h 2.015381 v 0.675239 h -0.334174 l -0.974962,0.833713 0.888834,1.057644 h 0.461643 v 0.768257 h -1.023193 l -1.474501,-1.763889 v 1.033528 h 0.403076 v 0.730361 z"
         inkscape:connector-curvature="0" />
      <path
         id="path1664"
         style="font-style:normal;font-variant:normal;font-weight:bold;font-stretch:normal;font-size:7.05555534px;font-family:Rockwell;-inkscape-font-specification:'Rockwell Bold';fill:#4c2b0e;fill-opacity:1;stroke-width:0.26458332"
         d="m 45.314032,17.976996 0.826823,0.265272 q -0.52021,0.816488 -1.626086,0.816488 -0.881944,0 -1.378038,-0.465088 -0.492648,-0.465088 -0.492648,-1.223009 0,-0.771701 0.509874,-1.288466 0.509874,-0.516764 1.298801,-0.516764 0.571886,0 0.988742,0.289388 0.416857,0.289388 0.578776,0.720025 0.16192,0.430637 0.16192,0.961182 h -2.483914 q 0.02412,0.454752 0.285943,0.644232 0.265272,0.189481 0.558105,0.189481 0.382406,0 0.771702,-0.392741 z m -0.203261,-1.033529 q -0.0379,-0.279053 -0.220486,-0.475423 -0.179145,-0.196371 -0.492649,-0.196371 -0.585666,0 -0.682129,0.671794 z"
         inkscape:connector-curvature="0" />
      <path
         id="path1666"
         style="font-style:normal;font-variant:normal;font-weight:bold;font-stretch:normal;font-size:7.05555534px;font-family:Rockwell;-inkscape-font-specification:'Rockwell Bold';fill:#4c2b0e;fill-opacity:1;stroke-width:0.26458332"
         d="m 48.531752,18.982964 v -1.632976 h 0.813042 q 0.01378,0.447863 0.234267,0.661459 0.220486,0.21015 0.502984,0.21015 0.220486,0 0.37207,-0.151584 0.151584,-0.155029 0.151584,-0.361735 0,-0.220486 -0.148139,-0.368625 -0.148139,-0.151584 -0.54088,-0.344509 -0.830268,-0.403077 -1.129991,-0.70969 -0.296278,-0.306614 -0.296278,-0.826823 0,-0.627007 0.39274,-0.971517 0.392741,-0.344509 0.89228,-0.344509 0.571886,0 0.88539,0.444417 v -0.396186 h 0.809597 v 1.457275 h -0.809597 q -0.0379,-0.337619 -0.234267,-0.520209 -0.192925,-0.186035 -0.451307,-0.186035 -0.199816,0 -0.33762,0.106798 -0.137803,0.106798 -0.137803,0.279052 0,0.148139 0.113688,0.282498 0.113688,0.130914 0.664903,0.375516 0.530545,0.237711 0.813043,0.430637 0.285943,0.18948 0.451307,0.496093 0.165365,0.303169 0.165365,0.7028 0,0.709689 -0.413412,1.067979 -0.413411,0.35829 -0.978407,0.35829 -0.630452,0 -0.971517,-0.465088 v 0.406522 z"
         inkscape:connector-curvature="0" />
      <path
         id="path1668"
         style="font-style:normal;font-variant:normal;font-weight:bold;font-stretch:normal;font-size:7.05555534px;font-family:Rockwell;-inkscape-font-specification:'Rockwell Bold';fill:#4c2b0e;fill-opacity:1;stroke-width:0.26458332"
         d="m 52.138763,18.982964 v -0.768257 h 0.537435 v -3.255615 h -0.537435 v -0.768256 h 1.598525 v 1.725993 q 0.502983,-0.3514 0.947401,-0.3514 1.023193,0 1.023193,1.229899 v 1.419379 h 0.489204 v 0.768257 h -1.553738 v -2.139405 q 0,-0.234266 -0.08613,-0.320394 -0.08268,-0.08957 -0.251492,-0.08957 -0.237711,0 -0.56844,0.210151 v 1.570963 h 0.475423 v 0.768257 z"
         inkscape:connector-curvature="0" />
      <path
         id="path1670"
         style="font-style:normal;font-variant:normal;font-weight:bold;font-stretch:normal;font-size:7.05555534px;font-family:Rockwell;-inkscape-font-specification:'Rockwell Bold';fill:#4c2b0e;fill-opacity:1;stroke-width:0.26458332"
         d="m 58.377834,19.058756 q -0.73725,0 -1.247124,-0.465088 -0.506429,-0.468533 -0.506429,-1.281576 0,-0.813042 0.506429,-1.27813 0.509874,-0.468533 1.247124,-0.468533 0.740696,0 1.247125,0.468533 0.506429,0.465088 0.506429,1.27813 0,0.802708 -0.502984,1.274686 -0.499539,0.471978 -1.25057,0.471978 z m -0.0034,-0.826823 q 0.296278,0 0.478868,-0.227377 0.186035,-0.227376 0.186035,-0.713134 0,-0.427192 -0.179144,-0.664904 -0.179145,-0.241156 -0.485759,-0.241156 -0.658013,0 -0.658013,0.950846 0,0.389296 0.161919,0.644233 0.165365,0.251492 0.496094,0.251492 z"
         inkscape:connector-curvature="0" />
      <path
         id="path1672"
         style="font-style:normal;font-variant:normal;font-weight:bold;font-stretch:normal;font-size:7.05555534px;font-family:Rockwell;-inkscape-font-specification:'Rockwell Bold';fill:#4c2b0e;fill-opacity:1;stroke-width:0.26458332"
         d="m 62.815115,19.720214 v 0.768256 h -2.294434 v -0.768256 h 0.561551 v -3.300401 h -0.468533 v -0.771702 h 1.533067 v 0.416857 q 0.444417,-0.468533 0.992188,-0.468533 0.661458,0 1.040418,0.527099 0.382406,0.523655 0.382406,1.223009 0,0.740696 -0.392741,1.226454 -0.392741,0.485759 -1.047309,0.485759 -0.53399,0 -0.974962,-0.416857 v 1.078315 z m 0.654568,-2.394341 q 0,-0.437527 -0.18259,-0.654568 -0.179145,-0.217041 -0.475424,-0.217041 -0.299723,0 -0.489203,0.223931 -0.186035,0.220486 -0.186035,0.661458 0,0.396186 0.186035,0.637343 0.186035,0.241156 0.496094,0.241156 0.285943,0 0.468533,-0.217041 0.18259,-0.217041 0.18259,-0.675238 z"
         inkscape:connector-curvature="0" />
    </g>
    <path
       style="opacity:1;fill:#d99046;fill-opacity:1;stroke:none;stroke-width:1.00096381;stroke-miterlimit:4;stroke-dasharray:none;stroke-dashoffset:0;stroke-opacity:1"
       d="M 144,0 A 143.99999,143.99999 0 0 0 0,144 143.99999,143.99999 0 0 0 144,288 143.99999,143.99999 0 0 0 288,144 143.99999,143.99999 0 0 0 144,0 Z m 0,9.5996094 A 134.40001,134.40001 0 0 1 278.40039,144 134.40001,134.40001 0 0 1 144,278.40039 134.40001,134.40001 0 0 1 9.5996094,144 134.40001,134.40001 0 0 1 144,9.5996094 Z"
       id="circle2092"
       transform="scale(0.26458333)"
       inkscape:connector-curvature="0" />
  </g>
</svg>
