<?xml version="1.0" encoding="UTF-8" standalone="no"?>
<!-- Created with Inkscape (http://www.inkscape.org/) -->

<svg
   xmlns:dc="http://purl.org/dc/elements/1.1/"
   xmlns:cc="http://creativecommons.org/ns#"
   xmlns:rdf="http://www.w3.org/1999/02/22-rdf-syntax-ns#"
   xmlns:svg="http://www.w3.org/2000/svg"
   xmlns="http://www.w3.org/2000/svg"
   xmlns:sodipodi="http://sodipodi.sourceforge.net/DTD/sodipodi-0.dtd"
   xmlns:inkscape="http://www.inkscape.org/namespaces/inkscape"
   width="3in"
   height="3in"
   viewBox="0 0 76.200001 76.200002"
   version="1.1"
   id="svg8"
   inkscape:version="0.92.3 (2405546, 2018-03-11)"
   sodipodi:docname="ellis_bake_shop_pathed.svg">
  <defs
     id="defs2">
    <clipPath
       clipPathUnits="userSpaceOnUse"
       id="clipPath1006">
      <path
         id="path1008"
         style="opacity:1;fill:#d99046;fill-opacity:1;stroke:none;stroke-width:0.26483834;stroke-miterlimit:4;stroke-dasharray:none;stroke-dashoffset:0;stroke-opacity:1"
         d="M 76.199997,38.100003 A 38.099997,38.099997 0 0 1 38.099997,76.2 38.099997,38.099997 0 0 1 0,38.100003 38.099997,38.099997 0 0 1 38.099997,3.8146974e-6 38.099997,38.099997 0 0 1 76.199997,38.100003 Z"
         inkscape:connector-curvature="0" />
    </clipPath>
  </defs>
  <sodipodi:namedview
     id="base"
     pagecolor="#ffffff"
     bordercolor="#666666"
     borderopacity="1.0"
     inkscape:pageopacity="0.0"
     inkscape:pageshadow="2"
     inkscape:zoom="3"
     inkscape:cx="138.83759"
     inkscape:cy="191.14508"
     inkscape:document-units="mm"
     inkscape:current-layer="layer6"
     showgrid="false"
     units="in"
     inkscape:window-width="1600"
     inkscape:window-height="837"
     inkscape:window-x="-8"
     inkscape:window-y="-8"
     inkscape:window-maximized="1" />
  <metadata
     id="metadata5">
    <rdf:RDF>
      <cc:Work
         rdf:about="">
        <dc:format>image/svg+xml</dc:format>
        <dc:type
           rdf:resource="http://purl.org/dc/dcmitype/StillImage" />
        <dc:title></dc:title>
      </cc:Work>
    </rdf:RDF>
  </metadata>
  <g
     inkscape:label="Layer 1"
     inkscape:groupmode="layer"
     id="layer1"
     transform="translate(0,-220.79998)"
     sodipodi:insensitive="true">
    <circle
       style="opacity:1;fill:#d99046;fill-opacity:1;stroke:none;stroke-width:0.26483834;stroke-miterlimit:4;stroke-dasharray:none;stroke-dashoffset:0;stroke-opacity:1"
       id="path815"
       cx="38.099998"
       cy="258.89996"
       r="38.099998" />
    <circle
       cy="258.89996"
       cx="38.099998"
       id="circle830"
       style="opacity:1;fill:#850800;fill-opacity:1;stroke:none;stroke-width:0.24718246;stroke-miterlimit:4;stroke-dasharray:none;stroke-dashoffset:0;stroke-opacity:1"
       r="35.560001" />
  </g>
  <g
     inkscape:groupmode="layer"
     id="layer3"
     inkscape:label="Layer 3"
     style="display:inline"
     sodipodi:insensitive="true">
    <g
       id="g1004"
       clip-path="url(#clipPath1006)">
      <rect
         rx="0.93477213"
         y="7.4187915e-006"
         x="11.43"
         height="76.199997"
         width="10.668001"
         id="rect837"
         style="opacity:1;fill:#a76522;fill-opacity:1;stroke:none;stroke-width:0.22670245;stroke-miterlimit:4;stroke-dasharray:none;stroke-dashoffset:0;stroke-opacity:1" />
      <rect
         style="opacity:1;fill:#a76522;fill-opacity:1;stroke:none;stroke-width:0.22670245;stroke-miterlimit:4;stroke-dasharray:none;stroke-dashoffset:0;stroke-opacity:1"
         id="rect839"
         width="10.668001"
         height="76.199997"
         x="32.766003"
         y="7.4187915e-006"
         rx="0.93477213" />
      <rect
         rx="0.93477213"
         y="7.4187915e-006"
         x="54.102001"
         height="76.199997"
         width="10.668001"
         id="rect841"
         style="opacity:1;fill:#a76522;fill-opacity:1;stroke:none;stroke-width:0.22670245;stroke-miterlimit:4;stroke-dasharray:none;stroke-dashoffset:0;stroke-opacity:1" />
      <rect
         transform="rotate(90)"
         rx="0.93477201"
         y="-76.199997"
         x="11.430001"
         height="76.199997"
         width="10.668"
         id="rect837-6"
         style="opacity:1;fill:#d99046;fill-opacity:1;stroke:none;stroke-width:0.22670245;stroke-miterlimit:4;stroke-dasharray:none;stroke-dashoffset:0;stroke-opacity:1" />
      <rect
         transform="rotate(90)"
         style="opacity:1;fill:#d99046;fill-opacity:1;stroke:none;stroke-width:0.22670245;stroke-miterlimit:4;stroke-dasharray:none;stroke-dashoffset:0;stroke-opacity:1"
         id="rect839-7"
         width="10.668"
         height="76.199997"
         x="32.766006"
         y="-76.199997"
         rx="0.93477201" />
      <rect
         transform="rotate(90)"
         rx="0.93477201"
         y="-76.199997"
         x="54.102001"
         height="76.199997"
         width="10.668"
         id="rect841-7"
         style="opacity:1;fill:#d99046;fill-opacity:1;stroke:none;stroke-width:0.22670245;stroke-miterlimit:4;stroke-dasharray:none;stroke-dashoffset:0;stroke-opacity:1" />
      <text
         xml:space="preserve"
         style="font-style:normal;font-weight:normal;font-size:10.58333302px;line-height:1.25;font-family:sans-serif;letter-spacing:0px;word-spacing:0px;fill:#000000;fill-opacity:1;stroke:none;stroke-width:0.26458332"
         x="9.3486109"
         y="40.745834"
         id="text884"><tspan
           sodipodi:role="line"
           id="tspan882"
           x="9.3486109"
           y="50.401329"
           style="stroke-width:0.26458332" /></text>
    </g>
  </g>
  <g
     inkscape:groupmode="layer"
     id="layer4"
     inkscape:label="Layer 4"
     style="display:inline"
     sodipodi:insensitive="true">
    <text
       xml:space="preserve"
       style="font-style:normal;font-variant:normal;font-weight:normal;font-stretch:normal;font-size:4.58611107px;line-height:1;font-family:Rockwell;-inkscape-font-specification:Rockwell;letter-spacing:0px;word-spacing:0px;fill:#000000;fill-opacity:1;stroke:none;stroke-width:0.26458332"
       x="18.895956"
       y="21.008841"
       id="text1133"><tspan
         sodipodi:role="line"
         id="tspan1131"
         x="18.895956"
         y="24.619625"
         style="font-style:normal;font-variant:normal;font-weight:normal;font-stretch:normal;font-family:Rockwell;-inkscape-font-specification:Rockwell;stroke-width:0.26458332" /></text>
  </g>
  <g
     inkscape:groupmode="layer"
     id="layer5"
     inkscape:label="Layer 5"
     style="display:inline"
     sodipodi:insensitive="true">
    <path
       style="opacity:1;fill:#d99046;fill-opacity:1;stroke:none;stroke-width:1.00096381;stroke-miterlimit:4;stroke-dasharray:none;stroke-dashoffset:0;stroke-opacity:1"
       d="M 144,0 A 143.99999,143.99999 0 0 0 0,144 143.99999,143.99999 0 0 0 144,288 143.99999,143.99999 0 0 0 288,144 143.99999,143.99999 0 0 0 144,0 Z m 0,9.5996094 A 134.40001,134.40001 0 0 1 278.40039,144 134.40001,134.40001 0 0 1 144,278.40039 134.40001,134.40001 0 0 1 9.5996094,144 134.40001,134.40001 0 0 1 144,9.5996094 Z"
       id="circle2092"
       transform="scale(0.26458333)"
       inkscape:connector-curvature="0" />
  </g>
  <g
     inkscape:groupmode="layer"
     id="layer6"
     inkscape:label="Layer 7">
    <g
       aria-label="Ellis Bake Shop"
       style="font-style:normal;font-variant:normal;font-weight:normal;font-stretch:normal;font-size:10.58333302px;line-height:1.25;font-family:Kameron;-inkscape-font-specification:Kameron;letter-spacing:0px;word-spacing:0px;fill:#4c2b1e;fill-opacity:1;stroke:none;stroke-width:0.26458332"
       id="text1503">
      <path
         d="m 15.55874,14.191037 v 1.254015 h -0.671794 v -0.141249 q 0,-0.165365 -0.03445,-0.254937 -0.03445,-0.08957 -0.09646,-0.127469 -0.06201,-0.04134 -0.151585,-0.04823 -0.08957,-0.0069 -0.199815,-0.0069 h -1.154107 v 1.250569 h 0.678684 q 0.07579,0 0.127468,-0.0069 0.05512,-0.01033 0.09302,-0.04134 0.0379,-0.03101 0.06201,-0.09646 0.02756,-0.06546 0.04479,-0.179145 h 0.292833 v 1.219564 h -0.296278 q -0.02067,-0.110243 -0.04479,-0.1757 -0.02412,-0.06546 -0.06201,-0.09646 -0.0379,-0.03445 -0.08957,-0.04134 -0.05168,-0.01033 -0.127468,-0.01033 h -0.678684 v 1.340142 h 1.202338 q 0.127469,0 0.213596,-0.01722 0.08613,-0.01723 0.137804,-0.07579 0.05512,-0.05857 0.07924,-0.165365 0.02412,-0.110243 0.02412,-0.292833 v -0.110243 h 0.664903 v 1.329807 h -3.951524 v -0.613227 h 0.254937 q 0.08957,0 0.137804,-0.03101 0.05168,-0.03101 0.07579,-0.08613 0.02756,-0.05512 0.03101,-0.124024 0.0069,-0.0689 0.0069,-0.148139 V 15.21423 q 0,-0.07579 -0.0034,-0.151584 -0.0034,-0.07579 -0.02756,-0.134359 -0.02412,-0.05857 -0.07579,-0.09302 -0.04823,-0.0379 -0.144694,-0.0379 h -0.241157 v -0.606337 z"
         style="font-style:normal;font-variant:normal;font-weight:bold;font-stretch:normal;font-size:7.05555534px;font-family:Kameron;-inkscape-font-specification:'Kameron Bold';opacity:1;fill:#4c2b1e;fill-opacity:1;stroke-width:0.26458332"
         id="path1524" />
      <path
         d="m 17.56723,17.784271 q 0,0.110244 0.01723,0.179145 0.01722,0.0689 0.06201,0.106798 0.04823,0.0379 0.127469,0.05512 0.08268,0.01378 0.210151,0.01378 v 0.558106 q -0.117134,0 -0.230822,0 -0.113688,0 -0.234266,0 -0.117133,-0.0034 -0.248047,-0.0034 -0.130914,-0.0034 -0.279053,-0.0034 -0.275607,0 -0.485758,0.0034 -0.210151,0.0034 -0.423747,0.0034 v -0.558106 q 0.161919,0 0.248047,-0.02067 0.08957,-0.02067 0.130914,-0.0689 0.04134,-0.05168 0.04823,-0.134359 0.0069,-0.08268 0.0069,-0.206706 v -2.72507 q 0,-0.08268 -0.02756,-0.130914 -0.02411,-0.04823 -0.07924,-0.07235 -0.05168,-0.02412 -0.130914,-0.03101 -0.07579,-0.0069 -0.179145,-0.0069 v -0.551215 q 0.05512,0 0.16881,0 0.113688,0 0.237712,0 0.124023,-0.0034 0.227376,-0.0034 0.103353,-0.0034 0.137804,-0.0034 0.172255,0 0.341064,-0.0034 0.16881,-0.0034 0.354845,-0.01034 z"
         style="font-style:normal;font-variant:normal;font-weight:bold;font-stretch:normal;font-size:7.05555534px;font-family:Kameron;-inkscape-font-specification:'Kameron Bold';opacity:1;fill:#4c2b1e;fill-opacity:1;stroke-width:0.26458332"
         id="path1526" />
      <path
         d="m 19.813432,17.784271 q 0,0.110244 0.01723,0.179145 0.01722,0.0689 0.06201,0.106798 0.04823,0.0379 0.127469,0.05512 0.08268,0.01378 0.210151,0.01378 v 0.558106 q -0.117134,0 -0.230822,0 -0.113688,0 -0.234266,0 -0.117133,-0.0034 -0.248047,-0.0034 -0.130914,-0.0034 -0.279053,-0.0034 -0.275607,0 -0.485758,0.0034 -0.210151,0.0034 -0.423747,0.0034 v -0.558106 q 0.161919,0 0.248047,-0.02067 0.08957,-0.02067 0.130913,-0.0689 0.04134,-0.05168 0.04823,-0.134359 0.0069,-0.08268 0.0069,-0.206706 v -2.72507 q 0,-0.08268 -0.02756,-0.130914 -0.02411,-0.04823 -0.07924,-0.07235 -0.05168,-0.02412 -0.130914,-0.03101 -0.07579,-0.0069 -0.179145,-0.0069 v -0.551215 q 0.05512,0 0.16881,0 0.113688,0 0.237712,0 0.124023,-0.0034 0.227376,-0.0034 0.103353,-0.0034 0.137804,-0.0034 0.172255,0 0.341064,-0.0034 0.16881,-0.0034 0.354845,-0.01034 z"
         style="font-style:normal;font-variant:normal;font-weight:bold;font-stretch:normal;font-size:7.05555534px;font-family:Kameron;-inkscape-font-specification:'Kameron Bold';opacity:1;fill:#4c2b1e;fill-opacity:1;stroke-width:0.26458332"
         id="path1528" />
      <path
         d="m 21.498084,14.098019 q 0.127469,0 0.234267,0.03101 0.110243,0.02756 0.18948,0.08268 0.08268,0.05168 0.127468,0.130913 0.04479,0.07924 0.04479,0.1757 0,0.192925 -0.16192,0.310059 -0.158474,0.117133 -0.434082,0.117133 -0.268717,0 -0.430637,-0.106798 -0.161919,-0.106798 -0.161919,-0.320394 0,-0.18948 0.161919,-0.303168 0.16192,-0.117134 0.430637,-0.117134 z m 0.589111,3.724149 q 0,0.106797 0.01378,0.168809 0.01722,0.06201 0.05857,0.09646 0.04479,0.03101 0.124024,0.04134 0.07924,0.01034 0.206706,0.01034 v 0.558106 q -0.117134,0 -0.261828,0 -0.141249,-0.0034 -0.289388,-0.0034 -0.144694,0 -0.282498,0 -0.134358,-0.0034 -0.237711,-0.0034 -0.124024,0 -0.230822,0.0034 -0.106798,0 -0.20326,0 -0.09646,0 -0.18948,0.0034 -0.09302,0 -0.189481,0 v -0.558106 q 0.144694,0 0.227377,-0.0069 0.08613,-0.01033 0.130913,-0.04134 0.04479,-0.03445 0.05857,-0.09646 0.01378,-0.06201 0.01378,-0.172254 v -1.508952 q 0,-0.07235 -0.02411,-0.110243 -0.02412,-0.0379 -0.07579,-0.05512 -0.05168,-0.02067 -0.130913,-0.02411 -0.07579,-0.0034 -0.18259,-0.0034 0,-0.141249 0,-0.275607 0.0034,-0.134359 0.0034,-0.275608 0.144694,0 0.275608,0.0034 0.130913,0 0.254937,0 0.223931,0 0.454752,-0.0034 0.234267,-0.0034 0.475423,-0.01378 z"
         style="font-style:normal;font-variant:normal;font-weight:bold;font-stretch:normal;font-size:7.05555534px;font-family:Kameron;-inkscape-font-specification:'Kameron Bold';opacity:1;fill:#4c2b1e;fill-opacity:1;stroke-width:0.26458332"
         id="path1530" />
      <path
         d="m 25.773448,16.516476 h -0.544325 q -0.05512,-0.251492 -0.261827,-0.399631 -0.203261,-0.148139 -0.54088,-0.158474 -0.137804,0 -0.237712,0.02756 -0.09646,0.02756 -0.158474,0.07579 -0.06201,0.04479 -0.09302,0.106798 -0.02756,0.05857 -0.02756,0.124023 0,0.08268 0.05168,0.144694 0.05168,0.05857 0.148139,0.110243 0.09646,0.05168 0.234266,0.09991 0.141249,0.04479 0.320394,0.09646 0.303169,0.08268 0.53399,0.1757 0.234266,0.08957 0.392741,0.21015 0.161919,0.120579 0.244602,0.282498 0.08268,0.158475 0.08268,0.385851 0,0.258382 -0.110243,0.444417 -0.110243,0.18259 -0.292833,0.303169 -0.179145,0.120578 -0.409967,0.175699 -0.230821,0.05512 -0.475423,0.05512 -0.351399,0 -0.589111,-0.08613 -0.234267,-0.08957 -0.385851,-0.268718 l -0.01378,0.272163 q -0.16192,0 -0.316949,-0.01034 -0.151584,-0.01033 -0.310059,-0.01033 v -0.978407 h 0.623563 q 0.01378,0.155029 0.08268,0.272163 0.07235,0.117133 0.18259,0.19637 0.110243,0.07579 0.251492,0.113688 0.141249,0.0379 0.299723,0.0379 0.241157,0 0.396186,-0.08957 0.15503,-0.08957 0.15503,-0.244602 0,-0.103353 -0.08613,-0.1757 -0.08268,-0.07579 -0.223931,-0.137804 -0.137804,-0.06201 -0.320394,-0.120578 -0.179145,-0.05857 -0.37207,-0.127469 -0.230822,-0.08268 -0.416857,-0.168809 -0.18259,-0.08613 -0.313503,-0.196371 -0.127469,-0.110243 -0.196371,-0.258382 -0.0689,-0.148139 -0.0689,-0.354845 0,-0.213596 0.07924,-0.38585 0.08268,-0.1757 0.237712,-0.296279 0.155029,-0.124023 0.382406,-0.18948 0.227376,-0.0689 0.516764,-0.0689 0.303168,0 0.564996,0.07924 0.261827,0.07579 0.413411,0.230822 0.0034,-0.02067 0.01034,-0.06201 0.01034,-0.04479 0.02067,-0.08957 0.01378,-0.05168 0.02412,-0.113689 0.103352,0.01034 0.199815,0.02067 0.08268,0.0069 0.16881,0.01378 0.08957,0.0069 0.148139,0.01378 z"
         style="font-style:normal;font-variant:normal;font-weight:bold;font-stretch:normal;font-size:7.05555534px;font-family:Kameron;-inkscape-font-specification:'Kameron Bold';opacity:1;fill:#4c2b1e;fill-opacity:1;stroke-width:0.26458332"
         id="path1532" />
      <path
         d="m 30.413991,14.191037 q 0.571886,0 0.950846,0.07579 0.382406,0.07579 0.609782,0.223931 0.227376,0.144694 0.320394,0.35829 0.09646,0.213596 0.09646,0.489204 0,0.172255 -0.05512,0.334174 -0.05512,0.158474 -0.161919,0.289388 -0.106798,0.130914 -0.265273,0.227376 -0.155029,0.09302 -0.35829,0.134359 0.482314,0.09991 0.751031,0.389296 0.268718,0.289388 0.268718,0.73725 0,0.272163 -0.09646,0.502984 -0.09302,0.227376 -0.316949,0.392741 -0.220486,0.165365 -0.589111,0.258382 -0.368625,0.09302 -0.91295,0.09302 H 28.21602 v -0.613227 h 0.179145 q 0.117133,0 0.18259,-0.02067 0.06546,-0.02412 0.09646,-0.06546 0.03445,-0.04134 0.04134,-0.103352 0.0069,-0.06201 0.0069,-0.141249 V 15.21423 q 0,-0.06546 -0.0069,-0.134358 -0.0034,-0.07235 -0.03445,-0.130914 -0.02756,-0.06201 -0.08957,-0.09991 -0.06201,-0.04134 -0.175699,-0.04134 -0.01034,0 -0.0379,0 -0.02756,-0.0034 -0.05857,-0.0034 -0.02756,0 -0.05857,0 -0.02756,0 -0.04479,0 v -0.613227 z m -0.568441,1.939589 h 0.551215 q 0.857829,0 0.857829,-0.664904 0,-0.155029 -0.05168,-0.272162 -0.04823,-0.120579 -0.15503,-0.203261 -0.106798,-0.08268 -0.275607,-0.124023 -0.16881,-0.04479 -0.409967,-0.04479 H 29.84555 Z m 0,1.939588 h 0.568441 q 0.478868,0 0.72347,-0.168809 0.244602,-0.16881 0.244602,-0.52021 0,-0.192925 -0.06201,-0.330729 -0.06201,-0.137804 -0.203261,-0.227376 -0.137803,-0.08957 -0.35829,-0.130914 -0.220486,-0.04479 -0.533989,-0.04479 H 29.84555 Z"
         style="font-style:normal;font-variant:normal;font-weight:bold;font-stretch:normal;font-size:7.05555534px;font-family:Kameron;-inkscape-font-specification:'Kameron Bold';opacity:1;fill:#4c2b1e;fill-opacity:1;stroke-width:0.26458332"
         id="path1534" />
      <path
         d="m 36.473913,17.760156 q 0,0.141249 0.0069,0.220486 0.01033,0.07924 0.0379,0.117133 0.03101,0.03445 0.08268,0.04134 0.05168,0.0069 0.141249,0.0069 h 0.165365 v 0.551216 q -0.02756,0 -0.120579,0 -0.09302,0 -0.20326,0 -0.110243,-0.0034 -0.213596,-0.0034 -0.09991,0 -0.141249,0 -0.09646,0 -0.1757,0.0034 -0.07924,0 -0.155029,0 -0.07235,0.0034 -0.151584,0.0034 -0.07924,0.0034 -0.1757,0.0069 l -0.103353,-0.447862 q -0.07579,0.120578 -0.179145,0.217041 -0.103353,0.09302 -0.248047,0.161919 -0.144694,0.06546 -0.334174,0.09991 -0.18948,0.0379 -0.434082,0.0379 -0.296278,0 -0.523655,-0.07924 -0.223931,-0.07579 -0.375515,-0.206706 -0.148139,-0.130914 -0.223931,-0.306613 -0.07579,-0.179145 -0.07579,-0.378961 0,-0.230821 0.09991,-0.416856 0.103353,-0.186036 0.292833,-0.313504 0.192926,-0.130914 0.465088,-0.199816 0.272163,-0.07235 0.616672,-0.07235 0.223932,0 0.447863,0.02756 0.223931,0.02412 0.423747,0.07579 v -0.396186 q 0,-0.261827 -0.18259,-0.416856 -0.179145,-0.15503 -0.558106,-0.15503 -0.627007,0 -0.747586,0.499539 l -0.56844,-0.05168 0.02067,-0.689019 q 0.05168,-0.02412 0.16881,-0.06201 0.117133,-0.0379 0.296278,-0.07235 0.179145,-0.0379 0.413412,-0.06201 0.234266,-0.02756 0.520209,-0.02756 0.447862,0 0.768256,0.06546 0.320394,0.06201 0.523655,0.199816 0.206705,0.137804 0.303168,0.35829 0.09646,0.217041 0.09646,0.530544 z m -1.626085,-0.599447 q -0.361735,0 -0.561551,0.148139 -0.199815,0.148139 -0.199815,0.416857 0,0.127468 0.04479,0.206706 0.04479,0.07579 0.120578,0.148139 0.07924,0.0689 0.186035,0.106798 0.110243,0.0379 0.234267,0.0379 0.16881,0 0.306613,-0.04479 0.137804,-0.04479 0.234267,-0.130913 0.09991,-0.08957 0.151584,-0.192926 0.05512,-0.103352 0.05512,-0.265272 v -0.354845 q -0.144694,-0.04134 -0.285943,-0.05857 -0.141249,-0.01723 -0.285943,-0.01723 z"
         style="font-style:normal;font-variant:normal;font-weight:bold;font-stretch:normal;font-size:7.05555534px;font-family:Kameron;-inkscape-font-specification:'Kameron Bold';opacity:1;fill:#4c2b1e;fill-opacity:1;stroke-width:0.26458332"
         id="path1536" />
      <path
         d="m 37.131927,18.135671 q 0.144694,-0.0034 0.234266,-0.01378 0.09302,-0.01378 0.144694,-0.04479 0.05168,-0.03101 0.0689,-0.08268 0.02067,-0.05168 0.02067,-0.134358 v -2.893881 q 0,-0.08613 -0.03445,-0.130913 -0.03101,-0.04823 -0.09302,-0.0689 -0.05857,-0.02067 -0.141249,-0.02067 -0.08268,-0.0034 -0.18259,-0.0034 v -0.551215 q 0.01378,0 0.05168,0 0.04134,0 0.09646,0 0.05512,0 0.120578,0 0.06546,-0.0034 0.134359,-0.0034 0.158474,-0.0034 0.347954,-0.0034 0.199816,0 0.372071,-0.0034 0.175699,-0.0034 0.375515,-0.01034 v 2.869765 L 39.3988,16.454465 q 0.08268,-0.06201 0.158474,-0.127469 0.07924,-0.0689 0.137804,-0.124023 0.06201,-0.05512 0.09646,-0.09302 0.0379,-0.0379 0.0379,-0.04479 0,-0.01034 -0.04479,-0.01378 -0.04479,-0.0034 -0.106798,-0.0069 -0.05857,-0.0034 -0.120578,-0.0034 -0.06201,0 -0.09302,0 l 0.0069,-0.471978 q 0.227376,0.0069 0.392741,0.0069 0.168809,0 0.323839,0 0.106798,0 0.213595,0 0.110244,0 0.227377,0 0.120578,0 0.251492,0 0.134358,-0.0034 0.289388,-0.0069 v 0.509874 h -0.09646 q -0.0379,0 -0.07579,0 -0.03445,-0.0034 -0.04823,-0.0034 -0.08268,0 -0.141249,0.01034 -0.05857,0.01034 -0.117134,0.0379 -0.05857,0.02756 -0.127468,0.07579 -0.0689,0.04479 -0.165365,0.120578 l -0.72347,0.558105 0.968072,1.005968 q 0.127469,0.151584 0.237712,0.199816 0.110243,0.04823 0.254937,0.05168 h 0.18948 v 0.561551 q -0.113688,0 -0.261827,0 -0.144694,-0.0034 -0.285943,-0.0034 -0.137804,0 -0.251492,0 -0.110243,-0.0034 -0.155029,-0.0034 -0.285943,0 -0.509875,0.0034 -0.220486,0.0034 -0.454752,0.0034 v -0.561551 q 0.02412,0 0.05512,0 0.03445,0 0.06201,0 0.03101,-0.0034 0.05512,-0.0034 0.02412,-0.0034 0.03445,-0.0034 0.08957,-0.01034 0.08957,-0.0379 0,-0.02067 -0.02756,-0.04823 -0.02412,-0.02756 -0.06201,-0.06201 l -0.664904,-0.7028 -0.296278,0.210151 v 0.413412 q 0,0.0689 0.01033,0.113688 0.01034,0.04479 0.05168,0.07235 0.04479,0.02412 0.127468,0.0379 0.08613,0.01033 0.230822,0.01033 v 0.561551 q -0.103353,0 -0.227377,0 -0.120578,0 -0.254937,0 -0.130913,-0.0034 -0.268717,-0.0034 -0.134359,-0.0034 -0.261827,-0.0034 -0.08957,0 -0.206706,0.0034 -0.117133,0 -0.244602,0 -0.127468,0 -0.251492,0.0034 -0.124023,0 -0.223931,0 z"
         style="font-style:normal;font-variant:normal;font-weight:bold;font-stretch:normal;font-size:7.05555534px;font-family:Kameron;-inkscape-font-specification:'Kameron Bold';opacity:1;fill:#4c2b1e;fill-opacity:1;stroke-width:0.26458332"
         id="path1538" />
      <path
         d="m 44.99019,17.267507 h -2.342665 q 0.0034,0.492649 0.241157,0.726915 0.237711,0.230822 0.651123,0.230822 0.292833,0 0.492649,-0.134359 0.20326,-0.134359 0.289388,-0.323839 l 0.785481,0.06201 q -0.137803,0.471978 -0.56844,0.709689 -0.427192,0.237712 -1.078315,0.237712 -0.475423,0 -0.826823,-0.124023 -0.3514,-0.124024 -0.585666,-0.334175 -0.234267,-0.210151 -0.3514,-0.513319 -0.113688,-0.303168 -0.113688,-0.661458 0,-0.382406 0.127468,-0.692464 0.130914,-0.310059 0.368625,-0.5271 0.237712,-0.217041 0.571886,-0.334174 0.334175,-0.117134 0.744141,-0.117134 0.396186,0 0.72347,0.113689 0.327284,0.110243 0.56155,0.334174 0.234267,0.220486 0.365181,0.551215 0.130913,0.330729 0.130913,0.768256 z m -0.799262,-0.447862 v -0.02412 q 0,-0.01033 -0.0034,-0.02067 0,-0.01378 0,-0.02756 -0.03101,-0.36518 -0.227376,-0.564996 -0.196371,-0.203261 -0.516765,-0.203261 -0.354845,0 -0.558105,0.223932 -0.199816,0.223931 -0.227376,0.613227 h 1.533067 z"
         style="font-style:normal;font-variant:normal;font-weight:bold;font-stretch:normal;font-size:7.05555534px;font-family:Kameron;-inkscape-font-specification:'Kameron Bold';opacity:1;fill:#4c2b1e;fill-opacity:1;stroke-width:0.26458332"
         id="path1540" />
      <path
         d="m 50.85374,15.448497 h -0.661458 q -0.01378,-0.04479 -0.02412,-0.08613 -0.0069,-0.04134 -0.01722,-0.08268 -0.05857,-0.306613 -0.261827,-0.468533 -0.203261,-0.165364 -0.616672,-0.165364 -0.16881,0 -0.303169,0.04134 -0.134358,0.04134 -0.230821,0.117133 -0.09302,0.07579 -0.144694,0.179145 -0.05168,0.103353 -0.05168,0.230821 0,0.196371 0.120579,0.323839 0.120578,0.127469 0.327284,0.230822 0.206706,0.09991 0.478868,0.19637 0.272163,0.09302 0.575331,0.223931 0.199816,0.08268 0.375515,0.196371 0.179145,0.110243 0.313504,0.261827 0.134359,0.148139 0.210151,0.347955 0.07924,0.19637 0.07924,0.451307 0,0.272163 -0.106798,0.516764 -0.106798,0.241157 -0.306613,0.427192 -0.196371,0.18259 -0.482314,0.289388 -0.285943,0.106798 -0.644232,0.106798 -0.172255,0 -0.34451,-0.03101 -0.16881,-0.02756 -0.327284,-0.08268 -0.155029,-0.05512 -0.292833,-0.134359 -0.134359,-0.07924 -0.237712,-0.179145 v 0.33762 h -0.754476 v -1.398709 h 0.661459 q 0.02067,0.08957 0.04134,0.165365 0.03445,0.175699 0.09991,0.313503 0.0689,0.134359 0.18259,0.227377 0.113688,0.09302 0.279052,0.141248 0.165365,0.04823 0.396186,0.04823 0.1757,0 0.316949,-0.04134 0.144694,-0.04134 0.248047,-0.117134 0.103353,-0.07924 0.158474,-0.192925 0.05512,-0.117133 0.05512,-0.261827 0,-0.196371 -0.120578,-0.327284 -0.117134,-0.134359 -0.313504,-0.234267 -0.192925,-0.09991 -0.437527,-0.18259 -0.244602,-0.08613 -0.496094,-0.18948 -0.544325,-0.223931 -0.809597,-0.5271 -0.261828,-0.303168 -0.261828,-0.733805 0,-0.272162 0.09991,-0.506429 0.103353,-0.234266 0.296278,-0.406521 0.196371,-0.172255 0.475423,-0.268718 0.279053,-0.09991 0.637343,-0.09991 0.310059,0 0.609782,0.07579 0.303168,0.07579 0.568441,0.285943 0,-0.04823 -0.0034,-0.09646 0,-0.04823 0,-0.08957 v -0.09302 q 0.02067,0 0.08957,0 0.07235,0 0.165365,0.0034 0.09646,0 0.199815,0 0.106798,0 0.18948,0 z"
         style="font-style:normal;font-variant:normal;font-weight:bold;font-stretch:normal;font-size:7.05555534px;font-family:Kameron;-inkscape-font-specification:'Kameron Bold';opacity:1;fill:#4c2b1e;fill-opacity:1;stroke-width:0.26458332"
         id="path1542" />
      <path
         d="m 54.302284,16.922998 q 0,-0.1757 -0.02067,-0.327284 -0.02067,-0.15503 -0.07924,-0.265273 -0.05857,-0.113688 -0.165365,-0.1757 -0.106798,-0.06546 -0.275607,-0.06546 -0.189481,0 -0.327284,0.05512 -0.137804,0.05512 -0.234267,0.151584 -0.09302,0.09302 -0.148139,0.220486 -0.05512,0.124024 -0.07924,0.265273 v 1.150662 q 0,0.07924 0.02756,0.120578 0.02756,0.04134 0.08268,0.06201 0.05857,0.01722 0.148139,0.02067 0.08957,0.0034 0.217041,0.0034 v 0.558106 q -0.137804,0 -0.265272,0 -0.124024,0 -0.258383,0 -0.130913,-0.0034 -0.275607,-0.0034 -0.144694,-0.0034 -0.320394,-0.0034 -0.134359,0 -0.251492,0.0034 -0.113688,0 -0.220486,0 -0.103353,0 -0.203261,0.0034 -0.09991,0 -0.20326,0 v -0.558106 q 0.158474,0 0.251492,-0.0069 0.09302,-0.0069 0.141249,-0.03101 0.04823,-0.02756 0.06201,-0.07924 0.01378,-0.05512 0.01378,-0.148139 v -2.938666 q 0,-0.06546 -0.02412,-0.103353 -0.02412,-0.04134 -0.0689,-0.06201 -0.04134,-0.02067 -0.09991,-0.02756 -0.05857,-0.0069 -0.130913,-0.0069 h -0.124024 v -0.544325 q 0.18259,0.0034 0.375516,0 0.19637,-0.0034 0.382405,-0.0034 0.179145,0 0.361735,-0.0034 0.18259,-0.0034 0.378961,-0.01378 v 1.839681 q 0.241156,-0.265272 0.551215,-0.389295 0.310059,-0.124024 0.689019,-0.124024 0.313504,0 0.530545,0.09302 0.220486,0.08957 0.354845,0.279052 0.137803,0.189481 0.199815,0.485759 0.06201,0.292833 0.06201,0.699354 v 0.782037 q 0,0.103353 0.01378,0.165364 0.01378,0.05857 0.04823,0.08957 0.0379,0.03101 0.09646,0.04134 0.05857,0.0069 0.148139,0.0069 h 0.120579 v 0.558106 q -0.110243,0 -0.213596,0 -0.103353,0 -0.213596,0 -0.110243,-0.0034 -0.230822,-0.0034 -0.120578,-0.0034 -0.265272,-0.0034 -0.148139,0 -0.275608,0.0034 -0.127468,0 -0.244601,0 -0.117134,0 -0.227377,0.0034 -0.110243,0 -0.223931,0 v -0.558106 q 0.134359,0 0.213596,-0.02067 0.08268,-0.02412 0.127469,-0.06546 0.04479,-0.04134 0.05857,-0.09991 0.01378,-0.06201 0.01378,-0.134359 z"
         style="font-style:normal;font-variant:normal;font-weight:bold;font-stretch:normal;font-size:7.05555534px;font-family:Kameron;-inkscape-font-specification:'Kameron Bold';opacity:1;fill:#4c2b1e;fill-opacity:1;stroke-width:0.26458332"
         id="path1544" />
      <path
         d="m 58.088442,15.472612 q 0.382405,0 0.726915,0.106798 0.34451,0.106798 0.602892,0.316949 0.258382,0.210151 0.409966,0.523655 0.151584,0.310058 0.151584,0.71658 0,0.396186 -0.148139,0.706244 -0.148139,0.310059 -0.403076,0.509874 -0.254937,0.199816 -0.599447,0.313504 -0.344509,0.110243 -0.740695,0.110243 -0.399631,0 -0.744141,-0.110243 -0.344509,-0.110243 -0.602891,-0.310059 -0.254937,-0.199815 -0.403077,-0.509874 -0.144694,-0.310058 -0.144694,-0.709689 0,-0.392741 0.144694,-0.7028 0.144694,-0.310058 0.399631,-0.523654 0.254938,-0.213596 0.599447,-0.323839 0.347955,-0.113689 0.751031,-0.113689 z m 0.0034,0.568441 q -0.392741,0 -0.606337,0.289388 -0.213596,0.289388 -0.213596,0.802707 0,0.516765 0.210151,0.806153 0.210151,0.285943 0.599447,0.285943 0.192925,0 0.344509,-0.07579 0.151584,-0.07579 0.258382,-0.217041 0.106798,-0.141249 0.16192,-0.347955 0.05512,-0.206706 0.05512,-0.465088 0,-0.251492 -0.05512,-0.451307 -0.05512,-0.199816 -0.158475,-0.33762 -0.103352,-0.141249 -0.254937,-0.213596 -0.151584,-0.07579 -0.341064,-0.07579 z"
         style="font-style:normal;font-variant:normal;font-weight:bold;font-stretch:normal;font-size:7.05555534px;font-family:Kameron;-inkscape-font-specification:'Kameron Bold';opacity:1;fill:#4c2b1e;fill-opacity:1;stroke-width:0.26458332"
         id="path1546" />
      <path
         d="m 62.680756,16.09962 q -0.392741,0 -0.609782,0.275607 -0.213596,0.272163 -0.213596,0.754476 0,0.496094 0.213596,0.778592 0.213596,0.282498 0.609782,0.282498 0.186035,0 0.337619,-0.06546 0.155029,-0.0689 0.261827,-0.203261 0.110244,-0.134358 0.16881,-0.334174 0.06201,-0.199815 0.06201,-0.465088 0,-0.485758 -0.217041,-0.754476 -0.217041,-0.268717 -0.613227,-0.268717 z m -2.287543,3.469211 q 0.148139,-0.0034 0.241156,-0.01723 0.09302,-0.01033 0.148139,-0.03445 0.03101,-0.06546 0.04134,-0.130913 0.01378,-0.06546 0.01378,-0.158475 v -2.876654 q 0,-0.08613 -0.02412,-0.134359 -0.02412,-0.04823 -0.07579,-0.0689 -0.04823,-0.02067 -0.127468,-0.02411 -0.07924,-0.0034 -0.192926,-0.0034 v -0.551215 q 0.144694,0 0.282498,0.0034 0.137804,0 0.265272,0 0.213596,0 0.434082,-0.0034 0.220486,-0.0034 0.451308,-0.01378 l 0.0034,0.461643 q 0.06546,-0.103353 0.16881,-0.196371 0.106798,-0.09646 0.251492,-0.16881 0.144694,-0.07235 0.323839,-0.113688 0.179145,-0.04479 0.39274,-0.04479 0.3514,0 0.644233,0.117133 0.292833,0.117134 0.502984,0.330729 0.210151,0.213596 0.323839,0.51332 0.117133,0.299723 0.117133,0.664903 0,0.382406 -0.117133,0.692464 -0.113688,0.306614 -0.327284,0.52021 -0.210151,0.213596 -0.506429,0.330729 -0.296278,0.113688 -0.658013,0.113688 -0.334174,0 -0.609782,-0.103353 -0.272163,-0.106798 -0.468533,-0.316949 l -0.0034,0.971517 q 0,0.08957 0.02067,0.137804 0.02067,0.05168 0.0689,0.07235 0.05168,0.02412 0.130914,0.02756 0.07924,0.0034 0.19637,0.0034 h 0.08268 v 0.55466 q -0.09646,0 -0.230822,-0.0034 -0.134358,0 -0.279052,0 -0.141249,0 -0.282498,0 -0.137804,0 -0.248047,0 -0.103353,0 -0.234267,0 -0.130913,0 -0.261827,0 -0.130913,0 -0.251492,0 -0.120578,0.0034 -0.206705,0.0034 z"
         style="font-style:normal;font-variant:normal;font-weight:bold;font-stretch:normal;font-size:7.05555534px;font-family:Kameron;-inkscape-font-specification:'Kameron Bold';opacity:1;fill:#4c2b1e;fill-opacity:1;stroke-width:0.26458332"
         id="path1548" />
    </g>
    <g
       aria-label="ellisbakeshop.com"
       style="font-style:normal;font-variant:normal;font-weight:normal;font-stretch:normal;font-size:10.58333302px;line-height:1.25;font-family:Kameron;-inkscape-font-specification:Kameron;letter-spacing:0px;word-spacing:0px;fill:#4c2b1e;fill-opacity:1;stroke:none;stroke-width:0.26458332"
       id="text1518">
      <path
         d="M 17.540185,38.474313 H 15.90032 q 0.0024,0.344854 0.16881,0.50884 0.166398,0.161575 0.455786,0.161575 0.204983,0 0.344854,-0.09405 0.142282,-0.09405 0.202572,-0.226687 l 0.549837,0.04341 q -0.09646,0.330385 -0.397909,0.496783 -0.299034,0.166398 -0.75482,0.166398 -0.332796,0 -0.578776,-0.08682 -0.24598,-0.08682 -0.409967,-0.233922 -0.163986,-0.147106 -0.245979,-0.359324 -0.07958,-0.212218 -0.07958,-0.463021 0,-0.267684 0.08923,-0.484725 0.09164,-0.217041 0.258037,-0.368969 0.166399,-0.151929 0.400321,-0.233922 0.233922,-0.08199 0.520898,-0.08199 0.27733,0 0.506429,0.07958 0.229099,0.07717 0.393085,0.233922 0.163987,0.15434 0.255627,0.385851 0.09164,0.23151 0.09164,0.537779 z m -0.559483,-0.313504 v -0.01688 q 0,-0.0072 -0.0024,-0.01447 0,-0.0096 0,-0.01929 -0.0217,-0.255626 -0.159163,-0.395497 -0.137459,-0.142282 -0.361735,-0.142282 -0.248391,0 -0.390674,0.156751 -0.139871,0.156752 -0.159163,0.429259 h 1.073147 z"
         style="font-style:normal;font-variant:normal;font-weight:bold;font-stretch:normal;font-size:4.93888903px;font-family:Kameron;-inkscape-font-specification:'Kameron Bold';opacity:1;fill:#4c2b1e;fill-opacity:1;stroke-width:0.26458332"
         id="path1551" />
      <path
         d="m 19.011241,38.836048 q 0,0.07717 0.01206,0.125401 0.01206,0.04823 0.04341,0.07476 0.03376,0.02653 0.08923,0.03858 0.05788,0.0096 0.147106,0.0096 v 0.390674 q -0.08199,0 -0.161575,0 -0.07958,0 -0.163987,0 -0.08199,-0.0024 -0.173632,-0.0024 -0.09164,-0.0024 -0.195337,-0.0024 -0.192926,0 -0.340031,0.0024 -0.147106,0.0024 -0.296623,0.0024 v -0.390674 q 0.113344,0 0.173633,-0.01447 0.0627,-0.01447 0.09164,-0.04823 0.02894,-0.03617 0.03376,-0.09405 0.0048,-0.05788 0.0048,-0.144694 v -1.907549 q 0,-0.05788 -0.01929,-0.09164 -0.01688,-0.03376 -0.05547,-0.05064 -0.03617,-0.01688 -0.09164,-0.0217 -0.05305,-0.0048 -0.125401,-0.0048 v -0.385851 q 0.03859,0 0.118167,0 0.07958,0 0.166398,0 0.08682,-0.0024 0.159163,-0.0024 0.07235,-0.0024 0.09646,-0.0024 0.120578,0 0.238745,-0.0024 0.118167,-0.0024 0.248391,-0.0072 z"
         style="font-style:normal;font-variant:normal;font-weight:bold;font-stretch:normal;font-size:4.93888903px;font-family:Kameron;-inkscape-font-specification:'Kameron Bold';opacity:1;fill:#4c2b1e;fill-opacity:1;stroke-width:0.26458332"
         id="path1553" />
      <path
         d="m 20.583583,38.836048 q 0,0.07717 0.01206,0.125401 0.01206,0.04823 0.04341,0.07476 0.03376,0.02653 0.08923,0.03858 0.05788,0.0096 0.147105,0.0096 v 0.390674 q -0.08199,0 -0.161575,0 -0.07958,0 -0.163986,0 -0.08199,-0.0024 -0.173633,-0.0024 -0.09164,-0.0024 -0.195337,-0.0024 -0.192925,0 -0.340031,0.0024 -0.147105,0.0024 -0.296623,0.0024 v -0.390674 q 0.113344,0 0.173633,-0.01447 0.0627,-0.01447 0.09164,-0.04823 0.02894,-0.03617 0.03376,-0.09405 0.0048,-0.05788 0.0048,-0.144694 v -1.907549 q 0,-0.05788 -0.01929,-0.09164 -0.01688,-0.03376 -0.05547,-0.05064 -0.03617,-0.01688 -0.09164,-0.0217 -0.05306,-0.0048 -0.125402,-0.0048 v -0.385851 q 0.03859,0 0.118167,0 0.07958,0 0.166398,0 0.08682,-0.0024 0.159164,-0.0024 0.07235,-0.0024 0.09646,-0.0024 0.120579,0 0.238745,-0.0024 0.118167,-0.0024 0.248392,-0.0072 z"
         style="font-style:normal;font-variant:normal;font-weight:bold;font-stretch:normal;font-size:4.93888903px;font-family:Kameron;-inkscape-font-specification:'Kameron Bold';opacity:1;fill:#4c2b1e;fill-opacity:1;stroke-width:0.26458332"
         id="path1555" />
      <path
         d="m 21.762839,36.255671 q 0.08923,0 0.163987,0.0217 0.07717,0.01929 0.132636,0.05788 0.05788,0.03617 0.08923,0.09164 0.03135,0.05547 0.03135,0.12299 0,0.135048 -0.113343,0.217041 -0.110932,0.08199 -0.303858,0.08199 -0.188102,0 -0.301446,-0.07476 -0.113343,-0.07476 -0.113343,-0.224276 0,-0.132636 0.113343,-0.212218 0.113344,-0.08199 0.301446,-0.08199 z m 0.412378,2.606904 q 0,0.07476 0.0096,0.118167 0.01206,0.04341 0.041,0.06752 0.03135,0.0217 0.08682,0.02894 0.05547,0.0072 0.144694,0.0072 v 0.390674 q -0.08199,0 -0.183279,0 -0.09887,-0.0024 -0.202572,-0.0024 -0.101286,0 -0.197749,0 -0.09405,-0.0024 -0.166398,-0.0024 -0.08682,0 -0.161575,0.0024 -0.07476,0 -0.142282,0 -0.06752,0 -0.132636,0.0024 -0.06511,0 -0.132636,0 v -0.390674 q 0.101285,0 0.159163,-0.0048 0.06029,-0.0072 0.09164,-0.02894 0.03135,-0.02412 0.041,-0.06752 0.0096,-0.04341 0.0096,-0.120578 v -1.056266 q 0,-0.05064 -0.01688,-0.07717 -0.01688,-0.02653 -0.05305,-0.03858 -0.03617,-0.01447 -0.09164,-0.01688 -0.05305,-0.0024 -0.127813,-0.0024 0,-0.09887 0,-0.192925 0.0024,-0.09405 0.0024,-0.192926 0.101286,0 0.192925,0.0024 0.09164,0 0.178456,0 0.156752,0 0.318327,-0.0024 0.163987,-0.0024 0.332796,-0.0096 z"
         style="font-style:normal;font-variant:normal;font-weight:bold;font-stretch:normal;font-size:4.93888903px;font-family:Kameron;-inkscape-font-specification:'Kameron Bold';opacity:1;fill:#4c2b1e;fill-opacity:1;stroke-width:0.26458332"
         id="path1557" />
      <path
         d="m 24.755594,37.948591 h -0.381028 q -0.03859,-0.176044 -0.183279,-0.279742 -0.142282,-0.103697 -0.378616,-0.110932 -0.09646,0 -0.166398,0.01929 -0.06752,0.01929 -0.110932,0.05305 -0.04341,0.03135 -0.06511,0.07476 -0.01929,0.041 -0.01929,0.08682 0,0.05788 0.03617,0.101286 0.03617,0.041 0.103697,0.07717 0.06752,0.03617 0.163987,0.06994 0.09887,0.03135 0.224275,0.06752 0.212218,0.05788 0.373793,0.12299 0.163987,0.0627 0.274919,0.147106 0.113343,0.0844 0.171221,0.197748 0.05788,0.110933 0.05788,0.270096 0,0.180867 -0.07717,0.311092 -0.07717,0.127813 -0.204984,0.212218 -0.125401,0.08441 -0.286976,0.12299 -0.161575,0.03859 -0.332796,0.03859 -0.24598,0 -0.412378,-0.06029 -0.163987,-0.0627 -0.270096,-0.188102 l -0.0096,0.190513 q -0.113344,0 -0.221864,-0.0072 -0.106109,-0.0072 -0.217041,-0.0072 v -0.684885 h 0.436493 q 0.0096,0.10852 0.05788,0.190514 0.05064,0.08199 0.127813,0.137459 0.07717,0.05306 0.176044,0.07958 0.09887,0.02653 0.209807,0.02653 0.168809,0 0.27733,-0.0627 0.10852,-0.0627 0.10852,-0.171221 0,-0.07235 -0.06029,-0.12299 -0.05788,-0.05305 -0.156752,-0.09646 -0.09646,-0.04341 -0.224275,-0.0844 -0.125402,-0.041 -0.26045,-0.08923 -0.161575,-0.05788 -0.291799,-0.118167 -0.127813,-0.06029 -0.219453,-0.137459 -0.08923,-0.07717 -0.137459,-0.180868 -0.04823,-0.103697 -0.04823,-0.248391 0,-0.149518 0.05547,-0.270096 0.05788,-0.12299 0.166398,-0.207395 0.10852,-0.08682 0.267684,-0.132636 0.159163,-0.04823 0.361735,-0.04823 0.212218,0 0.395497,0.05547 0.183279,0.05305 0.289388,0.161575 0.0024,-0.01447 0.0072,-0.04341 0.0072,-0.03135 0.01447,-0.0627 0.0096,-0.03617 0.01688,-0.07958 0.07235,0.0072 0.139871,0.01447 0.05788,0.0048 0.118166,0.0096 0.0627,0.0048 0.103698,0.0096 z"
         style="font-style:normal;font-variant:normal;font-weight:bold;font-stretch:normal;font-size:4.93888903px;font-family:Kameron;-inkscape-font-specification:'Kameron Bold';opacity:1;fill:#4c2b1e;fill-opacity:1;stroke-width:0.26458332"
         id="path1559" />
      <path
         d="m 27.005586,39.530579 q -0.27733,0 -0.470255,-0.09164 -0.192926,-0.09164 -0.330385,-0.272507 l -0.0024,0.315916 q -0.149518,-0.0048 -0.2918,-0.0072 -0.139871,0 -0.282153,-0.0024 -0.041,0 -0.115756,0.0024 -0.07476,0 -0.147105,0 h -0.180868 v -0.383439 h 0.132636 q 0.06511,-0.0024 0.09888,-0.02894 0.03617,-0.02653 0.05305,-0.06029 0.01688,-0.03617 0.01929,-0.06994 0.0048,-0.03376 0.0048,-0.04823 v -1.989543 q 0,-0.0627 -0.01929,-0.09887 -0.01929,-0.03858 -0.05788,-0.05788 -0.03859,-0.01929 -0.09888,-0.02411 -0.06029,-0.0072 -0.13987,-0.0072 v -0.385851 q 0.135047,0.0024 0.27733,0 0.144694,-0.0048 0.282153,-0.0048 0.130225,-0.0024 0.250803,-0.0024 0.12299,-0.0024 0.243568,-0.0072 v 1.220253 q 0.13746,-0.144694 0.327973,-0.221864 0.190514,-0.07717 0.422025,-0.07717 0.248391,0 0.453374,0.07958 0.207395,0.07717 0.354501,0.226688 0.149517,0.149517 0.23151,0.364146 0.08199,0.21463 0.08199,0.484725 0,0.24598 -0.07717,0.455786 -0.07476,0.209807 -0.219452,0.364147 -0.142283,0.151929 -0.344855,0.241157 -0.202571,0.08682 -0.455786,0.08682 z m -0.224275,-1.895492 q -0.13746,0 -0.24598,0.05306 -0.106109,0.05064 -0.180868,0.147105 -0.07235,0.09646 -0.110932,0.236334 -0.03617,0.137459 -0.03617,0.308681 0,0.342442 0.149517,0.535367 0.149517,0.190514 0.429259,0.190514 0.270095,0 0.417201,-0.188102 0.149517,-0.190514 0.149517,-0.545014 0,-0.173633 -0.041,-0.311092 -0.03859,-0.13746 -0.113343,-0.231511 -0.07235,-0.09405 -0.178456,-0.144694 -0.106109,-0.05064 -0.238745,-0.05064 z"
         style="font-style:normal;font-variant:normal;font-weight:bold;font-stretch:normal;font-size:4.93888903px;font-family:Kameron;-inkscape-font-specification:'Kameron Bold';opacity:1;fill:#4c2b1e;fill-opacity:1;stroke-width:0.26458332"
         id="path1561" />
      <path
         d="m 30.847212,38.819167 q 0,0.09887 0.0048,0.15434 0.0072,0.05547 0.02653,0.08199 0.0217,0.02412 0.05788,0.02894 0.03617,0.0048 0.09887,0.0048 h 0.115755 v 0.385851 q -0.01929,0 -0.08441,0 -0.06511,0 -0.142282,0 -0.07717,-0.0024 -0.149517,-0.0024 -0.06994,0 -0.09887,0 -0.06752,0 -0.12299,0.0024 -0.05547,0 -0.10852,0 -0.05064,0.0024 -0.106109,0.0024 -0.05547,0.0024 -0.12299,0.0048 l -0.07235,-0.313504 q -0.05305,0.0844 -0.125401,0.151929 -0.07235,0.06511 -0.173633,0.113343 -0.101286,0.04582 -0.233922,0.06994 -0.132636,0.02653 -0.303858,0.02653 -0.207394,0 -0.366558,-0.05547 -0.156752,-0.05306 -0.262861,-0.144694 -0.103697,-0.09164 -0.156751,-0.21463 -0.05306,-0.125401 -0.05306,-0.265272 0,-0.161575 0.06994,-0.2918 0.07235,-0.130224 0.204984,-0.219452 0.135047,-0.09164 0.325561,-0.139871 0.190514,-0.05064 0.431671,-0.05064 0.156752,0 0.313503,0.01929 0.156752,0.01688 0.296623,0.05305 v -0.27733 q 0,-0.183279 -0.127813,-0.2918 -0.125401,-0.10852 -0.390674,-0.10852 -0.438905,0 -0.52331,0.349677 l -0.397908,-0.03617 0.01447,-0.482314 q 0.03617,-0.01688 0.118167,-0.04341 0.08199,-0.02653 0.207395,-0.05064 0.125401,-0.02653 0.289388,-0.04341 0.163986,-0.01929 0.364146,-0.01929 0.313504,0 0.53778,0.04582 0.224275,0.04341 0.366558,0.139871 0.144694,0.09646 0.212218,0.250803 0.06752,0.151929 0.06752,0.371381 z m -1.13826,-0.419613 q -0.253215,0 -0.393085,0.103697 -0.139871,0.103698 -0.139871,0.2918 0,0.08923 0.03135,0.144694 0.03135,0.05306 0.08441,0.103697 0.05547,0.04823 0.130225,0.07476 0.07717,0.02653 0.163986,0.02653 0.118167,0 0.21463,-0.03135 0.09646,-0.03135 0.163986,-0.09164 0.06994,-0.0627 0.106109,-0.135047 0.03859,-0.07235 0.03859,-0.185691 v -0.248391 q -0.101286,-0.02894 -0.20016,-0.041 -0.09887,-0.01206 -0.20016,-0.01206 z"
         style="font-style:normal;font-variant:normal;font-weight:bold;font-stretch:normal;font-size:4.93888903px;font-family:Kameron;-inkscape-font-specification:'Kameron Bold';opacity:1;fill:#4c2b1e;fill-opacity:1;stroke-width:0.26458332"
         id="path1563" />
      <path
         d="m 31.307822,39.082028 q 0.101285,-0.0024 0.163986,-0.0096 0.06511,-0.0096 0.101286,-0.03135 0.03617,-0.0217 0.04823,-0.05788 0.01447,-0.03617 0.01447,-0.09405 v -2.025716 q 0,-0.06029 -0.02412,-0.09164 -0.0217,-0.03376 -0.06511,-0.04823 -0.041,-0.01447 -0.09887,-0.01447 -0.05788,-0.0024 -0.127813,-0.0024 v -0.385851 q 0.0096,0 0.03617,0 0.02894,0 0.06752,0 0.03858,0 0.0844,0 0.04582,-0.0024 0.09405,-0.0024 0.110932,-0.0024 0.243568,-0.0024 0.139871,0 0.260449,-0.0024 0.12299,-0.0024 0.262861,-0.0072 v 2.008835 l 0.525722,-0.409966 q 0.05788,-0.04341 0.110932,-0.08923 0.05547,-0.04823 0.09646,-0.08682 0.04341,-0.03858 0.06752,-0.06511 0.02653,-0.02653 0.02653,-0.03135 0,-0.0072 -0.03135,-0.0096 -0.03135,-0.0024 -0.07476,-0.0048 -0.041,-0.0024 -0.08441,-0.0024 -0.04341,0 -0.06511,0 l 0.0048,-0.330385 q 0.159163,0.0048 0.274918,0.0048 0.118167,0 0.226687,0 0.07476,0 0.149518,0 0.07717,0 0.159163,0 0.08441,0 0.176044,0 0.09405,-0.0024 0.202572,-0.0048 v 0.356912 h -0.06752 q -0.02653,0 -0.05305,0 -0.02412,-0.0024 -0.03376,-0.0024 -0.05788,0 -0.09887,0.0072 -0.041,0.0072 -0.08199,0.02653 -0.041,0.01929 -0.08923,0.05305 -0.04823,0.03135 -0.115755,0.08441 l -0.506429,0.390674 0.67765,0.704177 q 0.08923,0.106109 0.166398,0.139871 0.07717,0.03376 0.178456,0.03617 h 0.132636 v 0.393085 q -0.07958,0 -0.183279,0 -0.101285,-0.0024 -0.20016,-0.0024 -0.09646,0 -0.176044,0 -0.07717,-0.0024 -0.108521,-0.0024 -0.20016,0 -0.356911,0.0024 -0.154341,0.0024 -0.318327,0.0024 v -0.393085 q 0.01688,0 0.03858,0 0.02412,0 0.04341,0 0.0217,-0.0024 0.03859,-0.0024 0.01688,-0.0024 0.02412,-0.0024 0.0627,-0.0072 0.0627,-0.02653 0,-0.01447 -0.01929,-0.03376 -0.01688,-0.01929 -0.04341,-0.04341 l -0.465433,-0.49196 -0.207394,0.147106 v 0.289388 q 0,0.04823 0.0072,0.07958 0.0072,0.03135 0.03617,0.05064 0.03135,0.01688 0.08923,0.02653 0.06029,0.0072 0.161575,0.0072 v 0.393085 q -0.07235,0 -0.159164,0 -0.0844,0 -0.178456,0 -0.09164,-0.0024 -0.188102,-0.0024 -0.09405,-0.0024 -0.183279,-0.0024 -0.0627,0 -0.144694,0.0024 -0.08199,0 -0.171221,0 -0.08923,0 -0.176045,0.0024 -0.08682,0 -0.156751,0 z"
         style="font-style:normal;font-variant:normal;font-weight:bold;font-stretch:normal;font-size:4.93888903px;font-family:Kameron;-inkscape-font-specification:'Kameron Bold';opacity:1;fill:#4c2b1e;fill-opacity:1;stroke-width:0.26458332"
         id="path1565" />
      <path
         d="m 36.808605,38.474313 h -1.639866 q 0.0024,0.344854 0.16881,0.50884 0.166398,0.161575 0.455786,0.161575 0.204983,0 0.344854,-0.09405 0.142283,-0.09405 0.202572,-0.226687 l 0.549837,0.04341 q -0.09646,0.330385 -0.397909,0.496783 -0.299034,0.166398 -0.75482,0.166398 -0.332796,0 -0.578776,-0.08682 -0.24598,-0.08682 -0.409966,-0.233922 -0.163987,-0.147106 -0.24598,-0.359324 -0.07958,-0.212218 -0.07958,-0.463021 0,-0.267684 0.08923,-0.484725 0.09164,-0.217041 0.258038,-0.368969 0.166398,-0.151929 0.40032,-0.233922 0.233922,-0.08199 0.520898,-0.08199 0.27733,0 0.506429,0.07958 0.229099,0.07717 0.393086,0.233922 0.163986,0.15434 0.255626,0.385851 0.09164,0.23151 0.09164,0.537779 z m -0.559484,-0.313504 v -0.01688 q 0,-0.0072 -0.0024,-0.01447 0,-0.0096 0,-0.01929 -0.0217,-0.255626 -0.159164,-0.395497 -0.137459,-0.142282 -0.361735,-0.142282 -0.248391,0 -0.390674,0.156751 -0.139871,0.156752 -0.159163,0.429259 h 1.073147 z"
         style="font-style:normal;font-variant:normal;font-weight:bold;font-stretch:normal;font-size:4.93888903px;font-family:Kameron;-inkscape-font-specification:'Kameron Bold';opacity:1;fill:#4c2b1e;fill-opacity:1;stroke-width:0.26458332"
         id="path1567" />
      <path
         d="m 39.302166,37.948591 h -0.381028 q -0.03858,-0.176044 -0.183279,-0.279742 -0.142282,-0.103697 -0.378616,-0.110932 -0.09646,0 -0.166398,0.01929 -0.06752,0.01929 -0.110932,0.05305 -0.04341,0.03135 -0.06511,0.07476 -0.01929,0.041 -0.01929,0.08682 0,0.05788 0.03617,0.101286 0.03617,0.041 0.103697,0.07717 0.06752,0.03617 0.163987,0.06994 0.09887,0.03135 0.224276,0.06752 0.212217,0.05788 0.373792,0.12299 0.163987,0.0627 0.274919,0.147106 0.113344,0.0844 0.171221,0.197748 0.05788,0.110933 0.05788,0.270096 0,0.180867 -0.07717,0.311092 -0.07717,0.127813 -0.204983,0.212218 -0.125402,0.08441 -0.286977,0.12299 -0.161575,0.03859 -0.332796,0.03859 -0.24598,0 -0.412378,-0.06029 -0.163987,-0.0627 -0.270096,-0.188102 l -0.0096,0.190513 q -0.113344,0 -0.221864,-0.0072 -0.106109,-0.0072 -0.217041,-0.0072 v -0.684885 h 0.436494 q 0.0096,0.10852 0.05788,0.190514 0.05064,0.08199 0.127813,0.137459 0.07717,0.05306 0.176045,0.07958 0.09887,0.02653 0.209806,0.02653 0.16881,0 0.27733,-0.0627 0.108521,-0.0627 0.108521,-0.171221 0,-0.07235 -0.06029,-0.12299 -0.05788,-0.05305 -0.156751,-0.09646 -0.09646,-0.04341 -0.224276,-0.0844 -0.125402,-0.041 -0.260449,-0.08923 -0.161575,-0.05788 -0.2918,-0.118167 -0.127813,-0.06029 -0.219453,-0.137459 -0.08923,-0.07717 -0.137459,-0.180868 -0.04823,-0.103697 -0.04823,-0.248391 0,-0.149518 0.05547,-0.270096 0.05788,-0.12299 0.166398,-0.207395 0.10852,-0.08682 0.267684,-0.132636 0.159163,-0.04823 0.361735,-0.04823 0.212218,0 0.395497,0.05547 0.183279,0.05305 0.289388,0.161575 0.0024,-0.01447 0.0072,-0.04341 0.0072,-0.03135 0.01447,-0.0627 0.0096,-0.03617 0.01688,-0.07958 0.07235,0.0072 0.139871,0.01447 0.05788,0.0048 0.118167,0.0096 0.0627,0.0048 0.103697,0.0096 z"
         style="font-style:normal;font-variant:normal;font-weight:bold;font-stretch:normal;font-size:4.93888903px;font-family:Kameron;-inkscape-font-specification:'Kameron Bold';opacity:1;fill:#4c2b1e;fill-opacity:1;stroke-width:0.26458332"
         id="path1569" />
      <path
         d="m 41.706498,38.233156 q 0,-0.12299 -0.01447,-0.229099 -0.01447,-0.10852 -0.05547,-0.185691 -0.041,-0.07958 -0.115755,-0.122989 -0.07476,-0.04582 -0.192926,-0.04582 -0.132636,0 -0.229099,0.03858 -0.09646,0.03858 -0.163986,0.106109 -0.06511,0.06511 -0.103697,0.15434 -0.03859,0.08682 -0.05547,0.185691 v 0.805463 q 0,0.05547 0.01929,0.0844 0.01929,0.02894 0.05788,0.04341 0.041,0.01206 0.103697,0.01447 0.0627,0.0024 0.151929,0.0024 v 0.390674 q -0.09646,0 -0.185691,0 -0.08682,0 -0.180867,0 -0.09164,-0.0024 -0.192926,-0.0024 -0.101286,-0.0024 -0.224276,-0.0024 -0.09405,0 -0.176044,0.0024 -0.07958,0 -0.15434,0 -0.07235,0 -0.142283,0.0024 -0.06994,0 -0.142282,0 v -0.390674 q 0.110932,0 0.176044,-0.0048 0.06511,-0.0048 0.09887,-0.0217 0.03376,-0.01929 0.04341,-0.05547 0.0096,-0.03858 0.0096,-0.103698 v -2.057066 q 0,-0.04582 -0.01688,-0.07235 -0.01688,-0.02894 -0.04823,-0.04341 -0.02894,-0.01447 -0.06994,-0.01929 -0.041,-0.0048 -0.09164,-0.0048 h -0.08682 v -0.381028 q 0.127813,0.0024 0.262861,0 0.137459,-0.0024 0.267684,-0.0024 0.125402,0 0.253215,-0.0024 0.127813,-0.0024 0.265272,-0.0096 v 1.287777 q 0.16881,-0.185691 0.385851,-0.272507 0.217041,-0.08682 0.482313,-0.08682 0.219453,0 0.371381,0.06511 0.154341,0.0627 0.248392,0.195336 0.09646,0.132637 0.139871,0.340031 0.04341,0.204984 0.04341,0.489549 v 0.547425 q 0,0.07235 0.0096,0.115755 0.0096,0.041 0.03376,0.0627 0.02653,0.0217 0.06752,0.02894 0.041,0.0048 0.103697,0.0048 h 0.0844 v 0.390674 q -0.07717,0 -0.149517,0 -0.07235,0 -0.149517,0 -0.07717,-0.0024 -0.161575,-0.0024 -0.0844,-0.0024 -0.185691,-0.0024 -0.103697,0 -0.192925,0.0024 -0.08923,0 -0.171221,0 -0.08199,0 -0.159164,0.0024 -0.07717,0 -0.156752,0 v -0.390674 q 0.09405,0 0.149517,-0.01447 0.05788,-0.01688 0.08923,-0.04582 0.03135,-0.02894 0.041,-0.06994 0.0096,-0.04341 0.0096,-0.09405 z"
         style="font-style:normal;font-variant:normal;font-weight:bold;font-stretch:normal;font-size:4.93888903px;font-family:Kameron;-inkscape-font-specification:'Kameron Bold';opacity:1;fill:#4c2b1e;fill-opacity:1;stroke-width:0.26458332"
         id="path1571" />
      <path
         d="m 44.35681,37.217886 q 0.267684,0 0.508841,0.07476 0.241157,0.07476 0.422024,0.221864 0.180868,0.147106 0.286976,0.366558 0.106109,0.217041 0.106109,0.501606 0,0.27733 -0.103697,0.494371 -0.103697,0.217041 -0.282153,0.356912 -0.178456,0.139871 -0.419613,0.219453 -0.241157,0.07717 -0.518487,0.07717 -0.279742,0 -0.520898,-0.07717 -0.241157,-0.07717 -0.422024,-0.217041 -0.178456,-0.139871 -0.282154,-0.356912 -0.101286,-0.217041 -0.101286,-0.496783 0,-0.274919 0.101286,-0.49196 0.101286,-0.217041 0.279742,-0.366558 0.178456,-0.149517 0.419613,-0.226687 0.243568,-0.07958 0.525721,-0.07958 z m 0.0024,0.397909 q -0.274919,0 -0.424436,0.202571 -0.149517,0.202572 -0.149517,0.561896 0,0.361735 0.147105,0.564306 0.147106,0.20016 0.419613,0.20016 0.135048,0 0.241157,-0.05305 0.106109,-0.05306 0.180867,-0.151929 0.07476,-0.09887 0.113344,-0.243568 0.03858,-0.144694 0.03858,-0.325562 0,-0.176044 -0.03858,-0.315915 -0.03858,-0.139871 -0.110932,-0.236334 -0.07235,-0.09887 -0.178456,-0.149517 -0.106109,-0.05305 -0.238745,-0.05305 z"
         style="font-style:normal;font-variant:normal;font-weight:bold;font-stretch:normal;font-size:4.93888903px;font-family:Kameron;-inkscape-font-specification:'Kameron Bold';opacity:1;fill:#4c2b1e;fill-opacity:1;stroke-width:0.26458332"
         id="path1573" />
      <path
         d="m 47.571428,37.656791 q -0.274919,0 -0.426848,0.192926 -0.149517,0.190514 -0.149517,0.528133 0,0.347266 0.149517,0.545014 0.149518,0.197749 0.426848,0.197749 0.130224,0 0.236333,-0.04582 0.108521,-0.04823 0.183279,-0.142283 0.07717,-0.09405 0.118167,-0.233922 0.04341,-0.139871 0.04341,-0.325561 0,-0.340031 -0.151928,-0.528133 -0.151929,-0.188103 -0.429259,-0.188103 z m -1.601281,2.428448 q 0.103698,-0.0024 0.16881,-0.01206 0.06511,-0.0072 0.103697,-0.02412 0.0217,-0.04582 0.02894,-0.09164 0.0096,-0.04582 0.0096,-0.110932 v -2.013658 q 0,-0.06029 -0.01688,-0.09405 -0.01688,-0.03376 -0.05305,-0.04823 -0.03376,-0.01447 -0.08923,-0.01688 -0.05547,-0.0024 -0.135048,-0.0024 V 37.28541 q 0.101286,0 0.197749,0.0024 0.09646,0 0.18569,0 0.149518,0 0.303858,-0.0024 0.15434,-0.0024 0.315915,-0.0096 l 0.0024,0.32315 q 0.04582,-0.07235 0.118166,-0.137459 0.07476,-0.06752 0.176045,-0.118167 0.101286,-0.05064 0.226687,-0.07958 0.125402,-0.03135 0.274919,-0.03135 0.24598,0 0.450963,0.08199 0.204983,0.08199 0.352089,0.23151 0.147105,0.149518 0.226687,0.359324 0.08199,0.209806 0.08199,0.465432 0,0.267684 -0.08199,0.484725 -0.07958,0.21463 -0.229099,0.364147 -0.147106,0.149517 -0.3545,0.23151 -0.207395,0.07958 -0.46061,0.07958 -0.233922,0 -0.426847,-0.07235 -0.190514,-0.07476 -0.327973,-0.221864 l -0.0024,0.680062 q 0,0.0627 0.01447,0.09646 0.01447,0.03617 0.04823,0.05064 0.03617,0.01688 0.09164,0.01929 0.05547,0.0024 0.137459,0.0024 h 0.05788 v 0.388263 q -0.06752,0 -0.161575,-0.0024 -0.09405,0 -0.195337,0 -0.09887,0 -0.197749,0 -0.09646,0 -0.173633,0 -0.07235,0 -0.163986,0 -0.09164,0 -0.183279,0 -0.09164,0 -0.176045,0 -0.0844,0.0024 -0.144694,0.0024 z"
         style="font-style:normal;font-variant:normal;font-weight:bold;font-stretch:normal;font-size:4.93888903px;font-family:Kameron;-inkscape-font-specification:'Kameron Bold';opacity:1;fill:#4c2b1e;fill-opacity:1;stroke-width:0.26458332"
         id="path1575" />
      <path
         d="m 49.782837,38.918041 q 0.09405,0 0.16881,0.0217 0.07717,0.0217 0.130224,0.06029 0.05547,0.03617 0.08441,0.09164 0.03135,0.05305 0.03135,0.118167 0,0.127813 -0.106109,0.212217 -0.106109,0.08199 -0.308681,0.08199 -0.197748,0 -0.308681,-0.07717 -0.10852,-0.07717 -0.10852,-0.217041 0,-0.125402 0.110932,-0.207395 0.110932,-0.0844 0.306269,-0.0844 z"
         style="font-style:normal;font-variant:normal;font-weight:bold;font-stretch:normal;font-size:4.93888903px;font-family:Kameron;-inkscape-font-specification:'Kameron Bold';opacity:1;fill:#4c2b1e;fill-opacity:1;stroke-width:0.26458332"
         id="path1577" />
      <path
         d="m 53.040863,38.122224 h -0.419612 q -0.03376,-0.267684 -0.16881,-0.393086 -0.132636,-0.127813 -0.347266,-0.127813 -0.137459,0 -0.24598,0.05788 -0.106109,0.05547 -0.180867,0.159163 -0.07235,0.103698 -0.110932,0.250803 -0.03617,0.144694 -0.03617,0.320739 0,0.180867 0.03858,0.313504 0.041,0.130224 0.115756,0.23151 0.07717,0.101286 0.18569,0.156752 0.108521,0.05305 0.248392,0.05305 0.207394,0 0.330384,-0.118167 0.12299,-0.118166 0.159164,-0.311092 l 0.513663,0.06511 q -0.03376,0.183279 -0.125401,0.325561 -0.09164,0.142283 -0.233922,0.231511 -0.139871,0.08923 -0.327973,0.13987 -0.185691,0.05306 -0.409967,0.05306 -0.284564,0 -0.516075,-0.08199 -0.23151,-0.08199 -0.395497,-0.224276 -0.161575,-0.142282 -0.250803,-0.3545 -0.08923,-0.212218 -0.08923,-0.475079 0,-0.253215 0.08923,-0.465432 0.09164,-0.212218 0.24598,-0.364147 0.15434,-0.15434 0.359324,-0.238745 0.207394,-0.08682 0.441316,-0.08682 0.180868,0 0.352089,0.05064 0.173633,0.04823 0.311092,0.171222 l 0.02894,-0.180868 q 0.04341,0.0024 0.09887,0.0048 0.05788,0.0024 0.115755,0.0048 0.06029,0.0024 0.118167,0.0072 0.05788,0.0024 0.106109,0.0072 z"
         style="font-style:normal;font-variant:normal;font-weight:bold;font-stretch:normal;font-size:4.93888903px;font-family:Kameron;-inkscape-font-specification:'Kameron Bold';opacity:1;fill:#4c2b1e;fill-opacity:1;stroke-width:0.26458332"
         id="path1579" />
      <path
         d="m 54.813363,37.217886 q 0.267684,0 0.50884,0.07476 0.241157,0.07476 0.422025,0.221864 0.180867,0.147106 0.286976,0.366558 0.106109,0.217041 0.106109,0.501606 0,0.27733 -0.103697,0.494371 -0.103698,0.217041 -0.282154,0.356912 -0.178456,0.139871 -0.419612,0.219453 -0.241157,0.07717 -0.518487,0.07717 -0.279742,0 -0.520899,-0.07717 -0.241156,-0.07717 -0.422024,-0.217041 -0.178456,-0.139871 -0.282153,-0.356912 -0.101286,-0.217041 -0.101286,-0.496783 0,-0.274919 0.101286,-0.49196 0.101286,-0.217041 0.279741,-0.366558 0.178456,-0.149517 0.419613,-0.226687 0.243568,-0.07958 0.525722,-0.07958 z m 0.0024,0.397909 q -0.274918,0 -0.424435,0.202571 -0.149518,0.202572 -0.149518,0.561896 0,0.361735 0.147106,0.564306 0.147106,0.20016 0.419613,0.20016 0.135047,0 0.241156,-0.05305 0.106109,-0.05306 0.180868,-0.151929 0.07476,-0.09887 0.113343,-0.243568 0.03859,-0.144694 0.03859,-0.325562 0,-0.176044 -0.03859,-0.315915 -0.03859,-0.139871 -0.110932,-0.236334 -0.07235,-0.09887 -0.178456,-0.149517 -0.106109,-0.05305 -0.238745,-0.05305 z"
         style="font-style:normal;font-variant:normal;font-weight:bold;font-stretch:normal;font-size:4.93888903px;font-family:Kameron;-inkscape-font-specification:'Kameron Bold';opacity:1;fill:#4c2b1e;fill-opacity:1;stroke-width:0.26458332"
         id="path1581" />
      <path
         d="m 58.387308,38.250037 q 0,-0.139871 -0.01929,-0.243568 -0.01688,-0.103698 -0.05788,-0.171222 -0.041,-0.06994 -0.113343,-0.103697 -0.06994,-0.03617 -0.173633,-0.03617 -0.149517,0 -0.260449,0.05305 -0.110932,0.05064 -0.204984,0.173633 -0.02653,0.041 -0.04341,0.144694 -0.01688,0.103697 -0.01688,0.262861 v 0.557072 q 0,0.07235 0.01688,0.113343 0.01688,0.03858 0.05547,0.05788 0.03858,0.01688 0.101286,0.0217 0.0627,0.0048 0.15434,0.0048 v 0.390674 q -0.08923,0 -0.171221,0 -0.08199,0 -0.16881,0 -0.08682,-0.0024 -0.183279,-0.0024 -0.09646,-0.0024 -0.212217,-0.0024 -0.09887,0 -0.18328,0.0024 -0.08199,0 -0.159163,0 -0.07476,0 -0.149517,0.0024 -0.07235,0 -0.147106,0 v -0.390674 q 0.103698,0 0.163987,-0.0072 0.0627,-0.0072 0.09405,-0.02653 0.03376,-0.0217 0.04341,-0.05788 0.0096,-0.03859 0.0096,-0.09887 V 37.80872 q 0,-0.09405 -0.07476,-0.115755 -0.07476,-0.0217 -0.224276,-0.0217 V 37.28541 q 0.06994,0 0.132636,0.0024 0.06511,0.0024 0.132636,0.0024 0.188103,0 0.36897,-0.0024 0.180868,-0.0048 0.376205,-0.0096 v 0.381028 q 0.0627,-0.08682 0.151928,-0.161575 0.08923,-0.07717 0.202572,-0.135048 0.115755,-0.05788 0.250803,-0.09164 0.137459,-0.03376 0.294211,-0.03376 0.255626,0 0.434082,0.10852 0.178456,0.108521 0.270096,0.327973 0.18569,-0.207394 0.414789,-0.320738 0.229099,-0.115755 0.49196,-0.115755 0.219452,0 0.364146,0.06994 0.147106,0.06752 0.236334,0.20016 0.08923,0.130225 0.125401,0.325562 0.03859,0.192925 0.03859,0.44614 v 0.660769 q 0,0.05306 0.01447,0.08199 0.01688,0.02894 0.05064,0.04341 0.03617,0.01206 0.09164,0.01688 0.05788,0.0024 0.139871,0.0024 v 0.390674 q -0.15434,0 -0.306269,-0.0024 -0.151928,-0.0024 -0.342442,-0.0024 -0.188102,0 -0.349677,0.0024 -0.159164,0.0024 -0.325562,0.0024 v -0.390674 q 0.08441,0 0.139871,-0.0096 0.05788,-0.01206 0.08923,-0.03617 0.03376,-0.02411 0.04582,-0.06752 0.01447,-0.04341 0.01447,-0.10852 v -0.665593 q 0,-0.245979 -0.07958,-0.373792 -0.07958,-0.127813 -0.289388,-0.127813 -0.166398,0 -0.279741,0.06752 -0.110933,0.06511 -0.188103,0.16881 -0.02653,0.07476 -0.03859,0.163987 -0.0096,0.08923 -0.0096,0.195337 v 0.639065 q 0,0.05064 0.01447,0.08199 0.01447,0.02894 0.04582,0.04582 0.03376,0.01688 0.08923,0.0217 0.05547,0.0048 0.137459,0.0048 v 0.390674 q -0.07958,0 -0.156751,0 -0.07476,0 -0.154341,0 -0.07958,-0.0024 -0.168809,-0.0024 -0.08923,-0.0024 -0.197749,-0.0024 -0.09405,0 -0.176044,0.0024 -0.08199,0 -0.156752,0 -0.07235,0 -0.144694,0.0024 -0.06994,0 -0.142283,0 v -0.390674 q 0.159164,-0.0024 0.21463,-0.05305 0.05788,-0.05064 0.05788,-0.151929 z"
         style="font-style:normal;font-variant:normal;font-weight:bold;font-stretch:normal;font-size:4.93888903px;font-family:Kameron;-inkscape-font-specification:'Kameron Bold';opacity:1;fill:#4c2b1e;fill-opacity:1;stroke-width:0.26458332"
         id="path1583" />
    </g>
    <g
       aria-label="(732) 567-6361"
       style="font-style:normal;font-variant:normal;font-weight:normal;font-stretch:normal;font-size:10.58333302px;line-height:1.25;font-family:Kameron;-inkscape-font-specification:Kameron;letter-spacing:0px;word-spacing:0px;fill:#4c2b1e;fill-opacity:1;stroke:none;stroke-width:0.26458332"
       id="text1522">
      <path
         d="m 21.299818,57.886043 q -0.359323,0.313504 -0.52331,0.747586 -0.161575,0.434082 -0.161575,1.0008 0,0.284565 0.03617,0.535368 0.03859,0.250803 0.118167,0.472667 0.08199,0.219452 0.212218,0.412378 0.132636,0.195337 0.320738,0.364146 l -0.226687,0.241157 q -0.340031,-0.173633 -0.573953,-0.409966 -0.233922,-0.233922 -0.376205,-0.499195 -0.142282,-0.265272 -0.204983,-0.547425 -0.0627,-0.282154 -0.0627,-0.547426 0,-0.299034 0.06994,-0.590834 0.07235,-0.294211 0.219452,-0.557072 0.149518,-0.265272 0.378616,-0.487136 0.229099,-0.221865 0.545014,-0.378616 z"
         style="font-style:normal;font-variant:normal;font-weight:bold;font-stretch:normal;font-size:4.93888903px;font-family:Kameron;-inkscape-font-specification:'Kameron Bold';opacity:1;fill:#4c2b1e;fill-opacity:1;stroke-width:0.26458332"
         id="path1586" />
      <path
         d="m 21.914768,57.840223 h 2.257227 v 0.479902 q -0.258038,0.397908 -0.44614,0.781348 -0.188103,0.381027 -0.318327,0.725881 -0.127813,0.344854 -0.202572,0.641477 -0.07476,0.296623 -0.106109,0.525722 h -0.752409 q 0.05064,-0.344854 0.16881,-0.701766 0.118167,-0.359324 0.284565,-0.709001 0.16881,-0.352089 0.378616,-0.684885 0.209806,-0.332796 0.443728,-0.627007 h -0.899514 q -0.12299,0 -0.202572,0.0096 -0.07717,0.0072 -0.12299,0.03376 -0.04341,0.02411 -0.0627,0.07476 -0.01688,0.04823 -0.01688,0.130225 v 0.265272 h -0.402732 z"
         style="font-style:normal;font-variant:normal;font-weight:bold;font-stretch:normal;font-size:4.93888903px;font-family:Kameron;-inkscape-font-specification:'Kameron Bold';opacity:1;fill:#4c2b1e;fill-opacity:1;stroke-width:0.26458332"
         id="path1588" />
      <path
         d="m 25.28855,59.986518 q 0.0048,0.313503 0.159163,0.458197 0.156752,0.144694 0.463021,0.144694 0.12299,0 0.229099,-0.03135 0.10852,-0.03376 0.188102,-0.09646 0.08199,-0.0627 0.127813,-0.156752 0.04823,-0.09646 0.04823,-0.221864 0,-0.149517 -0.05547,-0.255626 -0.05306,-0.106109 -0.151929,-0.173633 -0.09646,-0.06993 -0.233922,-0.101285 -0.13746,-0.03376 -0.303858,-0.03617 v -0.371381 q 0.159164,-0.01688 0.282154,-0.05064 0.12299,-0.03617 0.207394,-0.09646 0.0844,-0.06029 0.127814,-0.149517 0.04582,-0.08923 0.04582,-0.217041 0,-0.103697 -0.03859,-0.190514 -0.03858,-0.08682 -0.110932,-0.147105 -0.06994,-0.0627 -0.171221,-0.09646 -0.09887,-0.03376 -0.219453,-0.03376 -0.142282,0 -0.241156,0.03858 -0.09887,0.03617 -0.161575,0.106109 -0.06029,0.06994 -0.08923,0.171221 -0.02653,0.101286 -0.02894,0.229099 l -0.504018,-0.01447 0.0024,-0.641477 q 0.195337,-0.139871 0.470255,-0.204983 0.277331,-0.06752 0.61495,-0.06752 0.267684,0 0.479902,0.05547 0.212218,0.05547 0.359323,0.163987 0.147106,0.10852 0.224276,0.267683 0.07958,0.159164 0.07958,0.364147 0,0.262861 -0.147106,0.436494 -0.147105,0.173632 -0.422024,0.238745 0.151929,0.03376 0.274919,0.09887 0.125401,0.0627 0.212217,0.161575 0.08682,0.09887 0.135048,0.233922 0.04823,0.132636 0.04823,0.301446 0,0.226687 -0.08923,0.405143 -0.08682,0.176044 -0.255627,0.299034 -0.166398,0.12299 -0.407554,0.188103 -0.238745,0.0627 -0.542603,0.0627 -0.20016,0 -0.395497,-0.04823 -0.195337,-0.04823 -0.352089,-0.166398 -0.15434,-0.120578 -0.253214,-0.32315 -0.09646,-0.202572 -0.103698,-0.511252 z"
         style="font-style:normal;font-variant:normal;font-weight:bold;font-stretch:normal;font-size:4.93888903px;font-family:Kameron;-inkscape-font-specification:'Kameron Bold';opacity:1;fill:#4c2b1e;fill-opacity:1;stroke-width:0.26458332"
         id="path1590" />
      <path
         d="m 27.873749,60.994553 q -0.0024,-0.01206 -0.0024,-0.02653 0,-0.01688 0,-0.02894 0,-0.21463 0.02653,-0.385851 0.02894,-0.173633 0.08441,-0.315915 0.05788,-0.144694 0.147106,-0.265273 0.08923,-0.12299 0.212217,-0.236333 0.12299,-0.115756 0.279742,-0.231511 0.159164,-0.115755 0.354501,-0.248391 0.159163,-0.108521 0.260449,-0.190514 0.103697,-0.08199 0.161575,-0.15434 0.05788,-0.07476 0.07958,-0.144694 0.02412,-0.07235 0.02412,-0.159164 0,-0.190513 -0.142282,-0.296622 -0.142283,-0.108521 -0.381028,-0.108521 -0.156752,0 -0.262861,0.03859 -0.103697,0.03617 -0.166398,0.106109 -0.0627,0.06994 -0.09164,0.173633 -0.02653,0.101286 -0.03135,0.23151 l -0.482313,-0.03376 0.0024,-0.627007 q 0.219453,-0.166398 0.499195,-0.238745 0.282153,-0.07476 0.627007,-0.07476 0.262861,0 0.470256,0.06029 0.209806,0.06029 0.3545,0.176044 0.144694,0.113344 0.219453,0.27733 0.07717,0.163987 0.07717,0.371381 0,0.180868 -0.06752,0.320739 -0.06511,0.137459 -0.183279,0.255626 -0.115755,0.115755 -0.279742,0.221864 -0.163986,0.106109 -0.359323,0.224276 -0.188103,0.113343 -0.33762,0.217041 -0.147105,0.103697 -0.250803,0.207395 -0.101285,0.101285 -0.156752,0.207394 -0.05547,0.103698 -0.05547,0.21463 h 0.986331 q 0.09164,0 0.142283,-0.01447 0.05305,-0.01688 0.07958,-0.06994 0.02894,-0.05306 0.03859,-0.151929 0.0096,-0.101286 0.01447,-0.270095 h 0.407555 v 0.96945 z"
         style="font-style:normal;font-variant:normal;font-weight:bold;font-stretch:normal;font-size:4.93888903px;font-family:Kameron;-inkscape-font-specification:'Kameron Bold';opacity:1;fill:#4c2b1e;fill-opacity:1;stroke-width:0.26458332"
         id="path1592" />
      <path
         d="m 31.061841,57.642475 q 0.552249,0.412378 0.839225,0.916395 0.286977,0.504018 0.286977,1.075559 0,0.27733 -0.0627,0.564307 -0.0627,0.284564 -0.207395,0.552248 -0.142282,0.265273 -0.376204,0.499195 -0.231511,0.236333 -0.573953,0.409966 l -0.229099,-0.241157 q 0.188102,-0.168809 0.320738,-0.364146 0.132636,-0.192926 0.21463,-0.41479 0.08441,-0.224275 0.12299,-0.475078 0.03859,-0.253215 0.03859,-0.53778 0,-0.593245 -0.180868,-1.056266 -0.178456,-0.463021 -0.571541,-0.81511 0.08923,-0.02894 0.183279,-0.05788 0.09405,-0.02894 0.195337,-0.05547 z"
         style="font-style:normal;font-variant:normal;font-weight:bold;font-stretch:normal;font-size:4.93888903px;font-family:Kameron;-inkscape-font-specification:'Kameron Bold';opacity:1;fill:#4c2b1e;fill-opacity:1;stroke-width:0.26458332"
         id="path1594" />
      <path
         d="m 36.29253,57.840223 v 0.576365 h -0.419613 q 0,-0.07717 -0.0072,-0.110932 -0.0048,-0.03617 -0.04582,-0.03617 h -1.133437 q -0.0096,0.236334 -0.01688,0.422024 -0.0048,0.07958 -0.0072,0.15434 0,0.07476 -0.0024,0.135048 -0.0024,0.06994 -0.0048,0.132636 0.147106,-0.101285 0.313504,-0.149517 0.168809,-0.05064 0.368969,-0.05064 0.248392,0 0.450963,0.07476 0.202572,0.07235 0.347266,0.207395 0.144694,0.135047 0.224276,0.327973 0.07958,0.190514 0.07958,0.426847 0,0.267684 -0.08923,0.475079 -0.08682,0.204983 -0.250803,0.347265 -0.161575,0.139871 -0.393086,0.212218 -0.23151,0.07235 -0.518487,0.07235 -0.315915,0 -0.60048,-0.07476 -0.282153,-0.07717 -0.52331,-0.221864 l -0.0024,-0.590834 0.501605,-0.01206 q 0.03376,0.219452 0.171222,0.325561 0.139871,0.106109 0.405143,0.106109 0.137459,0 0.248391,-0.03859 0.113344,-0.041 0.192926,-0.120578 0.07958,-0.07958 0.12299,-0.195337 0.04341,-0.115755 0.04341,-0.267684 0,-0.135048 -0.04341,-0.241157 -0.041,-0.10852 -0.118167,-0.183279 -0.07717,-0.07476 -0.190514,-0.113343 -0.110932,-0.041 -0.248391,-0.041 -0.183279,0 -0.32315,0.0627 -0.13746,0.06029 -0.233922,0.176044 l -0.395497,-0.09646 v -1.690508 z"
         style="font-style:normal;font-variant:normal;font-weight:bold;font-stretch:normal;font-size:4.93888903px;font-family:Kameron;-inkscape-font-specification:'Kameron Bold';opacity:1;fill:#4c2b1e;fill-opacity:1;stroke-width:0.26458332"
         id="path1596" />
      <path
         d="m 38.446058,57.777522 q 0.32315,0 0.561895,0.06752 0.241157,0.06511 0.429259,0.180868 l 0.02412,0.545014 -0.470256,0.02653 q -0.01929,-0.233922 -0.156752,-0.340031 -0.137459,-0.106109 -0.412378,-0.106109 -0.180867,0 -0.30868,0.06994 -0.125402,0.06994 -0.207395,0.207394 -0.08199,0.13746 -0.12299,0.33762 -0.03858,0.20016 -0.04341,0.460609 0.151929,-0.156752 0.3545,-0.236333 0.202572,-0.08199 0.431671,-0.08199 0.233922,0 0.424436,0.07717 0.192925,0.07717 0.327973,0.217041 0.137459,0.13746 0.209806,0.330385 0.07476,0.190514 0.07476,0.419613 0,0.243568 -0.08923,0.44614 -0.08682,0.202571 -0.24598,0.349677 -0.159164,0.144694 -0.383439,0.226687 -0.221865,0.07958 -0.49196,0.07958 -0.286976,0 -0.52331,-0.09646 -0.236334,-0.09646 -0.407555,-0.291799 -0.16881,-0.197749 -0.262861,-0.496783 -0.09405,-0.299035 -0.09405,-0.706589 0,-0.378616 0.08199,-0.689709 0.0844,-0.311092 0.255626,-0.530544 0.171221,-0.221864 0.429259,-0.342443 0.260449,-0.12299 0.614949,-0.12299 z m -0.103697,1.553049 q -0.144694,0 -0.279742,0.06029 -0.135048,0.06029 -0.243568,0.171221 -0.03617,0.07717 -0.05547,0.16881 -0.01688,0.09164 -0.01688,0.192925 0,0.320738 0.156752,0.494371 0.159163,0.171221 0.436493,0.171221 0.262861,0 0.409967,-0.151928 0.149517,-0.151929 0.149517,-0.441317 0,-0.15434 -0.03617,-0.27733 -0.03617,-0.12299 -0.10852,-0.209807 -0.06994,-0.08682 -0.173633,-0.132636 -0.103698,-0.04582 -0.238745,-0.04582 z"
         style="font-style:normal;font-variant:normal;font-weight:bold;font-stretch:normal;font-size:4.93888903px;font-family:Kameron;-inkscape-font-specification:'Kameron Bold';opacity:1;fill:#4c2b1e;fill-opacity:1;stroke-width:0.26458332"
         id="path1598" />
      <path
         d="m 40.242675,57.840223 h 2.257227 v 0.479902 q -0.258038,0.397908 -0.44614,0.781348 -0.188102,0.381027 -0.318327,0.725881 -0.127813,0.344854 -0.202571,0.641477 -0.07476,0.296623 -0.106109,0.525722 h -0.752409 q 0.05064,-0.344854 0.16881,-0.701766 0.118166,-0.359324 0.284564,-0.709001 0.16881,-0.352089 0.378616,-0.684885 0.209807,-0.332796 0.443729,-0.627007 H 41.05055 q -0.12299,0 -0.202571,0.0096 -0.07717,0.0072 -0.12299,0.03376 -0.04341,0.02411 -0.0627,0.07476 -0.01688,0.04823 -0.01688,0.130225 v 0.265272 h -0.402732 z"
         style="font-style:normal;font-variant:normal;font-weight:bold;font-stretch:normal;font-size:4.93888903px;font-family:Kameron;-inkscape-font-specification:'Kameron Bold';opacity:1;fill:#4c2b1e;fill-opacity:1;stroke-width:0.26458332"
         id="path1600" />
      <path
         d="M 44.626904,59.566905 V 60.20597 H 43.032858 V 59.566905 Z"
         style="font-style:normal;font-variant:normal;font-weight:bold;font-stretch:normal;font-size:4.93888903px;font-family:Kameron;-inkscape-font-specification:'Kameron Bold';opacity:1;fill:#4c2b1e;fill-opacity:1;stroke-width:0.26458332"
         id="path1602" />
      <path
         d="m 46.519985,57.777522 q 0.32315,0 0.561895,0.06752 0.241157,0.06511 0.429259,0.180868 l 0.02412,0.545014 -0.470256,0.02653 q -0.01929,-0.233922 -0.156752,-0.340031 -0.137459,-0.106109 -0.412378,-0.106109 -0.180867,0 -0.30868,0.06994 -0.125402,0.06994 -0.207395,0.207394 -0.08199,0.13746 -0.12299,0.33762 -0.03858,0.20016 -0.04341,0.460609 0.151929,-0.156752 0.3545,-0.236333 0.202572,-0.08199 0.431671,-0.08199 0.233922,0 0.424436,0.07717 0.192925,0.07717 0.327973,0.217041 0.137459,0.13746 0.209806,0.330385 0.07476,0.190514 0.07476,0.419613 0,0.243568 -0.08923,0.44614 -0.08682,0.202571 -0.24598,0.349677 -0.159164,0.144694 -0.383439,0.226687 -0.221865,0.07958 -0.49196,0.07958 -0.286977,0 -0.52331,-0.09646 -0.236334,-0.09646 -0.407555,-0.291799 -0.16881,-0.197749 -0.262861,-0.496783 -0.09405,-0.299035 -0.09405,-0.706589 0,-0.378616 0.08199,-0.689709 0.08441,-0.311092 0.255627,-0.530544 0.171221,-0.221864 0.429258,-0.342443 0.26045,-0.12299 0.61495,-0.12299 z m -0.103697,1.553049 q -0.144694,0 -0.279742,0.06029 -0.135048,0.06029 -0.243568,0.171221 -0.03617,0.07717 -0.05547,0.16881 -0.01688,0.09164 -0.01688,0.192925 0,0.320738 0.156751,0.494371 0.159164,0.171221 0.436494,0.171221 0.262861,0 0.409966,-0.151928 0.149518,-0.151929 0.149518,-0.441317 0,-0.15434 -0.03617,-0.27733 -0.03617,-0.12299 -0.10852,-0.209807 -0.06994,-0.08682 -0.173633,-0.132636 -0.103698,-0.04582 -0.238745,-0.04582 z"
         style="font-style:normal;font-variant:normal;font-weight:bold;font-stretch:normal;font-size:4.93888903px;font-family:Kameron;-inkscape-font-specification:'Kameron Bold';opacity:1;fill:#4c2b1e;fill-opacity:1;stroke-width:0.26458332"
         id="path1604" />
      <path
         d="m 48.65181,59.986518 q 0.0048,0.313503 0.159164,0.458197 0.156751,0.144694 0.46302,0.144694 0.12299,0 0.229099,-0.03135 0.108521,-0.03376 0.188102,-0.09646 0.08199,-0.0627 0.127813,-0.156752 0.04823,-0.09646 0.04823,-0.221864 0,-0.149517 -0.05547,-0.255626 -0.05306,-0.106109 -0.151929,-0.173633 -0.09646,-0.06993 -0.233922,-0.101285 -0.137459,-0.03376 -0.303857,-0.03617 v -0.371381 q 0.159163,-0.01688 0.282153,-0.05064 0.12299,-0.03617 0.207395,-0.09646 0.0844,-0.06029 0.127813,-0.149517 0.04582,-0.08923 0.04582,-0.217041 0,-0.103697 -0.03859,-0.190514 -0.03859,-0.08682 -0.110932,-0.147105 -0.06994,-0.0627 -0.171221,-0.09646 -0.09887,-0.03376 -0.219452,-0.03376 -0.142283,0 -0.241157,0.03858 -0.09887,0.03617 -0.161575,0.106109 -0.06029,0.06994 -0.08923,0.171221 -0.02653,0.101286 -0.02894,0.229099 l -0.504017,-0.01447 0.0024,-0.641477 q 0.195337,-0.139871 0.470256,-0.204983 0.27733,-0.06752 0.614949,-0.06752 0.267684,0 0.479902,0.05547 0.212218,0.05547 0.359324,0.163987 0.147105,0.10852 0.224275,0.267683 0.07958,0.159164 0.07958,0.364147 0,0.262861 -0.147106,0.436494 -0.147105,0.173632 -0.422024,0.238745 0.151929,0.03376 0.274919,0.09887 0.125401,0.0627 0.212218,0.161575 0.08682,0.09887 0.135047,0.233922 0.04823,0.132636 0.04823,0.301446 0,0.226687 -0.08923,0.405143 -0.08682,0.176044 -0.255626,0.299034 -0.166398,0.12299 -0.407555,0.188103 -0.238745,0.0627 -0.542603,0.0627 -0.20016,0 -0.395497,-0.04823 -0.195337,-0.04823 -0.352088,-0.166398 -0.154341,-0.120578 -0.253215,-0.32315 -0.09646,-0.202572 -0.103697,-0.511252 z"
         style="font-style:normal;font-variant:normal;font-weight:bold;font-stretch:normal;font-size:4.93888903px;font-family:Kameron;-inkscape-font-specification:'Kameron Bold';opacity:1;fill:#4c2b1e;fill-opacity:1;stroke-width:0.26458332"
         id="path1606" />
      <path
         d="m 52.597133,57.777522 q 0.32315,0 0.561896,0.06752 0.241156,0.06511 0.429258,0.180868 l 0.02412,0.545014 -0.470255,0.02653 q -0.01929,-0.233922 -0.156752,-0.340031 -0.13746,-0.106109 -0.412378,-0.106109 -0.180868,0 -0.308681,0.06994 -0.125401,0.06994 -0.207395,0.207394 -0.08199,0.13746 -0.122989,0.33762 -0.03859,0.20016 -0.04341,0.460609 0.151929,-0.156752 0.354501,-0.236333 0.202571,-0.08199 0.43167,-0.08199 0.233922,0 0.424436,0.07717 0.192925,0.07717 0.327973,0.217041 0.137459,0.13746 0.209806,0.330385 0.07476,0.190514 0.07476,0.419613 0,0.243568 -0.08923,0.44614 -0.08682,0.202571 -0.24598,0.349677 -0.159163,0.144694 -0.383439,0.226687 -0.221864,0.07958 -0.49196,0.07958 -0.286976,0 -0.52331,-0.09646 -0.236333,-0.09646 -0.407554,-0.291799 -0.16881,-0.197749 -0.262861,-0.496783 -0.09405,-0.299035 -0.09405,-0.706589 0,-0.378616 0.08199,-0.689709 0.0844,-0.311092 0.255626,-0.530544 0.171221,-0.221864 0.429259,-0.342443 0.260449,-0.12299 0.614949,-0.12299 z m -0.103697,1.553049 q -0.144694,0 -0.279742,0.06029 -0.135047,0.06029 -0.243568,0.171221 -0.03617,0.07717 -0.05547,0.16881 -0.01688,0.09164 -0.01688,0.192925 0,0.320738 0.156752,0.494371 0.159163,0.171221 0.436494,0.171221 0.26286,0 0.409966,-0.151928 0.149517,-0.151929 0.149517,-0.441317 0,-0.15434 -0.03617,-0.27733 -0.03617,-0.12299 -0.108521,-0.209807 -0.06994,-0.08682 -0.173633,-0.132636 -0.103697,-0.04582 -0.238745,-0.04582 z"
         style="font-style:normal;font-variant:normal;font-weight:bold;font-stretch:normal;font-size:4.93888903px;font-family:Kameron;-inkscape-font-specification:'Kameron Bold';opacity:1;fill:#4c2b1e;fill-opacity:1;stroke-width:0.26458332"
         id="path1608" />
      <path
         d="m 55.859983,57.840223 v 2.483914 q 0,0.07717 0.0048,0.127813 0.0072,0.04823 0.03858,0.07717 0.03135,0.02894 0.09405,0.041 0.0627,0.0096 0.178456,0.0096 h 0.166398 v 0.41479 q -0.09164,0 -0.178456,0 -0.08682,0 -0.180868,0 -0.09164,-0.0024 -0.195337,-0.0024 -0.101285,-0.0024 -0.221864,-0.0024 -0.142282,0 -0.258037,0.0024 -0.113344,0 -0.21463,0 -0.101286,0 -0.197748,0.0024 -0.09646,0 -0.20016,0 v -0.41479 h 0.226687 q 0.101286,0 0.15434,-0.01447 0.05547,-0.01688 0.08199,-0.04823 0.02653,-0.03135 0.03135,-0.07958 0.0048,-0.05064 0.0048,-0.118167 v -1.818322 q -0.06994,0.03859 -0.147106,0.07235 -0.07476,0.03376 -0.149517,0.0627 -0.07235,0.02653 -0.142282,0.04823 -0.06752,0.01929 -0.12299,0.02894 v -0.484725 q 0.241157,-0.03858 0.434082,-0.142282 0.195337,-0.103697 0.332796,-0.24598 z"
         style="font-style:normal;font-variant:normal;font-weight:bold;font-stretch:normal;font-size:4.93888903px;font-family:Kameron;-inkscape-font-specification:'Kameron Bold';opacity:1;fill:#4c2b1e;fill-opacity:1;stroke-width:0.26458332"
         id="path1610" />
    </g>
  </g>
</svg>
